<svg xmlns="http://www.w3.org/2000/svg" viewBox="0 0 100 100" preserveAspectRatio="xMidYMid" width="633" height="633" style="shape-rendering: auto; display: block; background: rgba(255, 255, 255, 0);" xmlns:xlink="http://www.w3.org/1999/xlink"><g><g transform="rotate(0 50 50)">
  <rect fill="#ecbb47" height="9" width="3" ry="4.5" rx="1.5" y="37.5" x="48.5">
    <animate repeatCount="indefinite" begin="-1.0457516339869282s" dur="1.1764705882352942s" keyTimes="0;1" values="1;0" attributeName="opacity"></animate>
  </rect>
</g><g transform="rotate(40 50 50)">
  <rect fill="#ecbb47" height="9" width="3" ry="4.5" rx="1.5" y="37.5" x="48.5">
    <animate repeatCount="indefinite" begin="-0.9150326797385622s" dur="1.1764705882352942s" keyTimes="0;1" values="1;0" attributeName="opacity"></animate>
  </rect>
</g><g transform="rotate(80 50 50)">
  <rect fill="#ecbb47" height="9" width="3" ry="4.5" rx="1.5" y="37.5" x="48.5">
    <animate repeatCount="indefinite" begin="-0.7843137254901962s" dur="1.1764705882352942s" keyTimes="0;1" values="1;0" attributeName="opacity"></animate>
  </rect>
</g><g transform="rotate(120 50 50)">
  <rect fill="#ecbb47" height="9" width="3" ry="4.5" rx="1.5" y="37.5" x="48.5">
    <animate repeatCount="indefinite" begin="-0.6535947712418301s" dur="1.1764705882352942s" keyTimes="0;1" values="1;0" attributeName="opacity"></animate>
  </rect>
</g><g transform="rotate(160 50 50)">
  <rect fill="#ecbb47" height="9" width="3" ry="4.5" rx="1.5" y="37.5" x="48.5">
    <animate repeatCount="indefinite" begin="-0.5228758169934641s" dur="1.1764705882352942s" keyTimes="0;1" values="1;0" attributeName="opacity"></animate>
  </rect>
</g><g transform="rotate(200 50 50)">
  <rect fill="#ecbb47" height="9" width="3" ry="4.5" rx="1.5" y="37.5" x="48.5">
    <animate repeatCount="indefinite" begin="-0.3921568627450981s" dur="1.1764705882352942s" keyTimes="0;1" values="1;0" attributeName="opacity"></animate>
  </rect>
</g><g transform="rotate(240 50 50)">
  <rect fill="#ecbb47" height="9" width="3" ry="4.5" rx="1.5" y="37.5" x="48.5">
    <animate repeatCount="indefinite" begin="-0.26143790849673204s" dur="1.1764705882352942s" keyTimes="0;1" values="1;0" attributeName="opacity"></animate>
  </rect>
</g><g transform="rotate(280 50 50)">
  <rect fill="#ecbb47" height="9" width="3" ry="4.5" rx="1.5" y="37.5" x="48.5">
    <animate repeatCount="indefinite" begin="-0.13071895424836602s" dur="1.1764705882352942s" keyTimes="0;1" values="1;0" attributeName="opacity"></animate>
  </rect>
</g><g transform="rotate(320 50 50)">
  <rect fill="#ecbb47" height="9" width="3" ry="4.5" rx="1.5" y="37.5" x="48.5">
    <animate repeatCount="indefinite" begin="0s" dur="1.1764705882352942s" keyTimes="0;1" values="1;0" attributeName="opacity"></animate>
  </rect>
</g><g></g></g><!-- [ldio] generated by https://loading.io --></svg>