<svg xmlns="http://www.w3.org/2000/svg" xmlns:xlink="http://www.w3.org/1999/xlink" viewBox="0 0 220 46.85"><defs><style>.cls-1{fill:url(#Новый_образец_градиента_1);}.cls-2{fill:url(#Новый_образец_градиента_1-2);}.cls-3{fill:url(#Новый_образец_градиента_1-3);}.cls-4{fill:url(#Новый_образец_градиента_1-4);}.cls-5{fill:url(#Новый_образец_градиента_1-5);}.cls-6{fill:url(#Новый_образец_градиента_1-6);}.cls-7{fill:url(#Новый_образец_градиента_1-7);}.cls-8{fill:url(#Новый_образец_градиента_1-8);}.cls-9{fill:#fff;}.cls-10{fill:url(#Новый_образец_градиента_1-9);}</style><linearGradient id="Новый_образец_градиента_1" x1="7.44" y1="19.04" x2="24.84" y2="19.04" gradientUnits="userSpaceOnUse"><stop offset="0" stop-color="#f4ad45"/><stop offset="0.22" stop-color="#eee546"/><stop offset="0.59" stop-color="#f6d545"/><stop offset="0.79" stop-color="#f5d345"/><stop offset="0.86" stop-color="#f3cc45"/><stop offset="0.91" stop-color="#efc145"/><stop offset="0.95" stop-color="#e9b046"/><stop offset="0.99" stop-color="#e19a46"/><stop offset="1" stop-color="#dd8e46"/></linearGradient><linearGradient id="Новый_образец_градиента_1-2" x1="24.63" y1="19.04" x2="42.03" y2="19.04" xlink:href="#Новый_образец_градиента_1"/><linearGradient id="Новый_образец_градиента_1-3" x1="25.35" y1="22.88" x2="49.45" y2="22.88" xlink:href="#Новый_образец_градиента_1"/><linearGradient id="Новый_образец_градиента_1-4" x1="0" y1="22.88" x2="24.1" y2="22.88" xlink:href="#Новый_образец_градиента_1"/><linearGradient id="Новый_образец_градиента_1-5" x1="7.56" y1="40.95" x2="26.13" y2="40.95" xlink:href="#Новый_образец_градиента_1"/><linearGradient id="Новый_образец_градиента_1-6" x1="23.45" y1="40.95" x2="42.02" y2="40.95" xlink:href="#Новый_образец_градиента_1"/><linearGradient id="Новый_образец_градиента_1-7" x1="22.89" y1="40.38" x2="26.8" y2="40.38" xlink:href="#Новый_образец_градиента_1"/><linearGradient id="Новый_образец_градиента_1-8" x1="57.24" y1="23.42" x2="80.63" y2="23.42" xlink:href="#Новый_образец_градиента_1"/><linearGradient id="Новый_образец_градиента_1-9" x1="141.75" y1="23.42" x2="158.98" y2="23.42" xlink:href="#Новый_образец_градиента_1"/></defs><g id="Layer_2" data-name="Layer 2"><g id="Слой_1" data-name="Слой 1"><path class="cls-1" d="M22.11,0h0a15.54,15.54,0,0,0-11,6.79c-4.3,6.38-3.64,15.94-3.64,15.94C7.62,36.16,17,38,17,38a6.26,6.26,0,0,0,6.76-4.09c3.18-6.71-3.55-15.38-3.55-15.38-6.88-10.75-2.44-16,.55-17.88a3.15,3.15,0,0,0-.86,2.51,2.61,2.61,0,0,0,2.74,2.56,2.79,2.79,0,0,0,2.21-3.17A2.63,2.63,0,0,0,22.11,0Zm.67,33s-1.15,4.8-5.75,4.18c0,0-8-3.22-8.22-16.19A26.41,26.41,0,0,1,11.9,7.86c3.65-6.39,8-7,8-7-2,1-7.56,5.87-1.45,17.15.15.27.85,1.31,1.39,2.13C21.48,22.72,24.69,28.46,22.78,33ZM22.13.49a2.18,2.18,0,0,1,2.29,2.14,2.34,2.34,0,0,1-1.84,2.65,2.18,2.18,0,0,1-2.29-2.14A2.33,2.33,0,0,1,22.13.49Z"/><path class="cls-2" d="M27.36,0h0a15.52,15.52,0,0,1,11,6.79C42.66,13.18,42,22.74,42,22.74,41.85,36.16,32.49,38,32.49,38a6.26,6.26,0,0,1-6.76-4.09c-3.18-6.71,3.56-15.38,3.56-15.38,6.87-10.75,2.43-16-.56-17.88a3.09,3.09,0,0,1,.86,2.51,2.6,2.6,0,0,1-2.74,2.56,2.79,2.79,0,0,1-2.21-3.17A2.63,2.63,0,0,1,27.36,0Zm-.67,33s1.15,4.8,5.76,4.18c0,0,8-3.22,8.21-16.19A26.47,26.47,0,0,0,37.58,7.86c-3.66-6.39-7.95-7-7.95-7,2,1,7.55,5.87,1.44,17.15-.14.27-.84,1.31-1.39,2.13C28,22.72,24.78,28.46,26.69,33ZM27.34.49a2.18,2.18,0,0,0-2.29,2.14A2.35,2.35,0,0,0,26.9,5.28a2.18,2.18,0,0,0,2.29-2.14A2.34,2.34,0,0,0,27.34.49Z"/><path class="cls-3" d="M44,8h0a16.3,16.3,0,0,1,5.43,11.21c.24,7-5.15,13.24-5.15,13.24-6.92,9.26-15.43,5-15.43,5-4.52-2.68-3.38-6.82-3.38-6.82.74-5.81,8.79-8.31,10.59-8.8l1-.3c10.34-3.47,9.18-9.3,7.73-12.29a2.45,2.45,0,0,1-.58,2.25A2.48,2.48,0,1,1,44,8ZM26.84,30.35A6,6,0,0,0,30,36.63s7,3.55,13.8-5.35c0,0,4.81-5.34,4.71-12-.09-6.36-3.1-9.37-3.1-9.37,1.36,2.45,2.45,9-7.65,12.53C37.53,22.54,27.75,25.12,26.84,30.35ZM41,11.37a2.08,2.08,0,1,0-.14-2.93A2.08,2.08,0,0,0,41,11.37Z"/><path class="cls-4" d="M5.43,8h0A16.25,16.25,0,0,0,0,19.18c-.24,7,5.15,13.24,5.15,13.24,6.92,9.26,15.43,5,15.43,5C25.11,34.78,24,30.64,24,30.64c-.74-5.81-8.79-8.31-10.6-8.8l-1-.3C2.06,18.07,3.22,12.24,4.67,9.25A2.49,2.49,0,1,0,5.43,8ZM22.61,30.35a6,6,0,0,1-3.14,6.28s-7,3.55-13.8-5.35c0,0-4.82-5.34-4.72-12,.1-6.36,3.1-9.37,3.1-9.37-1.36,2.45-2.45,9,7.66,12.53C11.92,22.54,21.7,25.12,22.61,30.35Zm-14.12-19a2.08,2.08,0,1,1,.14-2.93A2.08,2.08,0,0,1,8.49,11.37Z"/><path class="cls-5" d="M26,40h0a9.2,9.2,0,0,0-5.35-4.59c-3.78-1.15-8,.88-8,.88-6.07,2.43-5,7.68-5,7.68a3.54,3.54,0,0,0,3.25,2.84c3.7.5,6.27-4.57,6.27-4.57,3.48-5.5,6.8-4.09,8.25-2.84a1.4,1.4,0,0,0-1.32,0,1.41,1.41,0,1,0,1.29,2.5A1.4,1.4,0,0,0,26,40Zm-9.46,1.12s-3.68,5-6.16,3.73a1.34,1.34,0,0,1-.29-.24c-.55-.67-2.43-3.58,2.9-7,0,0,3.88-2.18,7.44-1.3S25.12,39,25.12,39C24.22,38.05,20.79,36,16.52,41.12Zm7.16.05a1.18,1.18,0,0,1,2.09-1.08,1.18,1.18,0,1,1-2.09,1.08Z"/><path class="cls-6" d="M23.6,40h0a9.24,9.24,0,0,1,5.35-4.59c3.78-1.15,8,.88,8,.88C43,38.72,42,44,42,44a3.54,3.54,0,0,1-3.25,2.84c-3.7.5-6.27-4.57-6.27-4.57-3.49-5.5-6.8-4.09-8.25-2.84a1.4,1.4,0,1,1-.58.6Zm9.46,1.12s3.68,5,6.15,3.73a1.16,1.16,0,0,0,.3-.24c.55-.67,2.43-3.58-2.9-7,0,0-3.89-2.18-7.44-1.3S24.46,39,24.46,39C25.36,38.05,28.79,36,33.06,41.12Zm-7.16.05a1.18,1.18,0,0,0-2.09-1.08,1.18,1.18,0,1,0,2.09,1.08Z"/><path class="cls-7" d="M26.8,40.37a2,2,0,1,1-2-1.95A2,2,0,0,1,26.8,40.37Z"/><path class="cls-8" d="M61.76,14.3a15.53,15.53,0,0,0-2.56,9.16,32.32,32.32,0,0,0,.3,3.71,12.67,12.67,0,0,0,1.8,4.91,10.39,10.39,0,0,1-4.06-8.66,11,11,0,0,1,1.36-5.67A10.11,10.11,0,0,1,61.76,14.3Zm13.7,8.62V33.5a15.59,15.59,0,0,1-5.73,1.37,8.5,8.5,0,0,1-6.55-2.68,8.76,8.76,0,0,1-1.85-3.43A17,17,0,0,1,60.71,24q0-12,10-12a21.11,21.11,0,0,1,7.14,1.23c0,1.3,0,2.3.06,3s.06,1.33.06,2.2h-.41a5.76,5.76,0,0,0-2.37-3.56,7.89,7.89,0,0,0-4.54-1.29q-8.15,0-8.14,9.77t6.93,9.91a5,5,0,0,0,3.91-1.31,6,6,0,0,0,.38-2.56V26.54c0-2-.74-3.19-2.22-3.49v-.38l2.15.12ZM77,33V22.92c.67,0,1.28-.07,1.84-.13.91-.08,1.5-.12,1.78-.12v.38c-1.27.51-1.9,1.88-1.9,4.1v5.31a6.87,6.87,0,0,0-.82.25,4.11,4.11,0,0,0-.55.17A2.94,2.94,0,0,1,77,33Z"/><path class="cls-9" d="M93.44,28.67c0,4.2-2.94,6-5.67,6-3,0-5.45-2.26-5.45-5.86,0-3.78,2.51-6,5.64-6S93.44,25.21,93.44,28.67Zm-9,.11c0,2.49,1.41,4.37,3.43,4.37s3.46-1.85,3.46-4.41c0-1.93-1-4.35-3.41-4.35S84.43,26.64,84.43,28.78Z"/><path class="cls-9" d="M95.45,17.76h2.07V34.45H95.45Z"/><path class="cls-9" d="M110.21,17.76V31.51c0,1,.05,2.16.1,2.94h-1.84l-.09-2h-.07a4.11,4.11,0,0,1-3.83,2.24c-2.75,0-4.89-2.33-4.89-5.79,0-3.78,2.35-6.08,5.1-6.08a3.81,3.81,0,0,1,3.43,1.71h0V17.76Zm-2,9.94a3.23,3.23,0,0,0-.1-.87,3,3,0,0,0-3-2.37c-2.14,0-3.41,1.88-3.41,4.37,0,2.3,1.15,4.21,3.36,4.21a3.12,3.12,0,0,0,3-2.47,3.2,3.2,0,0,0,.1-.89Z"/><path class="cls-9" d="M114.24,29.14a3.62,3.62,0,0,0,3.89,3.94,7.48,7.48,0,0,0,3.16-.58l.37,1.48a9.26,9.26,0,0,1-3.81.73c-3.5,0-5.59-2.33-5.59-5.76s2-6.11,5.33-6.11c3.74,0,4.7,3.24,4.7,5.33a4.94,4.94,0,0,1-.07,1Zm6.06-1.49c0-1.29-.54-3.33-2.87-3.33-2.12,0-3,1.9-3.17,3.33Z"/><path class="cls-9" d="M124.27,26.15c0-1.2,0-2.14-.1-3.08H126l.12,1.88h0a4.21,4.21,0,0,1,3.76-2.11c1.58,0,4,.94,4,4.84v6.77h-2.07V27.89c0-1.83-.68-3.36-2.63-3.36a3,3,0,0,0-2.77,2.11,2.87,2.87,0,0,0-.14,1v6.84h-2.07Z"/><path class="cls-10" d="M146.13,12.41v22c-1.22,0-2.68.09-4.38.26V34.3a3.24,3.24,0,0,0,2.07-1.77,11,11,0,0,0,.62-4.31V17.91a7.58,7.58,0,0,0-.75-4,3.22,3.22,0,0,0-1.94-1.38v-.4C143.24,12.29,144.7,12.37,146.13,12.41Zm2.45,22h-.84v-22h5.18c1.5,0,3.49-.08,6-.25,0,.37,0,.84,0,1.42,0,.34,0,1,.06,1.88S159,17,159,17.05v.54h-.44c-.39-2.5-1.57-3.76-3.55-3.76h-4.05a4,4,0,0,0-1.24.19,28.54,28.54,0,0,0-.27,4.41v4.32h3.66a7.6,7.6,0,0,0,3.44-.58,2.83,2.83,0,0,0,1.38-2h.46c-.1,1.5-.14,2.54-.14,3.11,0,.35,0,.94.06,1.78s.08,1.36.08,1.71v.69h-.46c-.07-2.2-1.24-3.3-3.53-3.3h-4.95V29c0,3.14,1,4.92,2.88,5.32v.38C150.34,34.51,149.09,34.42,148.58,34.42Z"/><path class="cls-9" d="M161.59,17.76h2.06V34.42h-2.06Z"/><path class="cls-9" d="M176.81,28.65c0,4.2-2.93,6-5.65,6-3,0-5.45-2.25-5.45-5.84,0-3.78,2.52-6,5.64-6S176.81,25.2,176.81,28.65Zm-9,.12c0,2.49,1.4,4.36,3.42,4.36s3.45-1.85,3.45-4.41c0-1.92-1-4.34-3.4-4.34S167.83,26.64,167.83,28.77Z"/><path class="cls-9" d="M179.49,23.07,181,28.84c.31,1.27.61,2.44.82,3.61h.07c.26-1.14.64-2.37,1-3.59l1.86-5.79h1.73l1.76,5.68c.42,1.36.75,2.56,1,3.7h.07a34.27,34.27,0,0,1,.87-3.68l1.62-5.7h2l-3.66,11.35h-1.88L186.59,29c-.39-1.27-.72-2.4-1-3.73h-.05a33,33,0,0,1-1,3.75l-1.83,5.39H180.8l-3.43-11.35Z"/><path class="cls-9" d="M196.26,29.12a3.63,3.63,0,0,0,3.9,3.94,7.54,7.54,0,0,0,3.14-.58l.37,1.48a9.37,9.37,0,0,1-3.8.72c-3.49,0-5.58-2.32-5.58-5.74s2-6.1,5.32-6.1c3.74,0,4.7,3.23,4.7,5.32a5.64,5.64,0,0,1-.07,1Zm6.05-1.48c0-1.29-.54-3.33-2.86-3.33-2.11,0-3,1.9-3.17,3.33Z"/><path class="cls-9" d="M206.28,26.61c0-1.33,0-2.48-.1-3.54H208l.09,2.25h.07a3.43,3.43,0,0,1,3.17-2.48,4.92,4.92,0,0,1,.56,0v1.95a3,3,0,0,0-.7,0,2.88,2.88,0,0,0-2.77,2.63,5.77,5.77,0,0,0-.07,1v6.05h-2.06Z"/><path class="cls-9" d="M213.08,32.34a5.87,5.87,0,0,0,2.74.79c1.48,0,2.19-.72,2.19-1.69s-.59-1.5-2.09-2.06c-2.07-.75-3-1.85-3-3.21,0-1.83,1.5-3.33,3.92-3.33a5.27,5.27,0,0,1,2.77.7l-.49,1.5a4.44,4.44,0,0,0-2.33-.68c-1.22,0-1.87.7-1.87,1.55s.65,1.36,2.13,1.95c1.95.72,3,1.71,3,3.4,0,2-1.57,3.42-4.22,3.42a6.53,6.53,0,0,1-3.19-.79Z"/><path class="cls-9" d="M154.92,46.57a3.78,3.78,0,0,1-1.56.28,2.75,2.75,0,0,1-2.9-3,2.92,2.92,0,0,1,3.07-3.09,3.26,3.26,0,0,1,1.4.26l-.19.62a2.7,2.7,0,0,0-1.18-.24,2.19,2.19,0,0,0-2.3,2.43,2.14,2.14,0,0,0,2.26,2.37,3.05,3.05,0,0,0,1.25-.25Z"/><path class="cls-9" d="M158.31,44.89l-.61,1.86h-.79l2-5.89h.91l2,5.89H161l-.63-1.86Zm1.94-.59-.58-1.7c-.13-.38-.22-.73-.31-1.07h0c-.08.34-.17.71-.29,1.07l-.58,1.7Z"/><path class="cls-9" d="M164.06,45.82a2.57,2.57,0,0,0,1.36.39c.77,0,1.23-.41,1.23-1s-.32-.86-1.11-1.16c-1-.35-1.56-.86-1.56-1.68a1.7,1.7,0,0,1,1.91-1.6,2.61,2.61,0,0,1,1.29.29l-.21.62a2.11,2.11,0,0,0-1.11-.28c-.8,0-1.11.48-1.11.88s.36.82,1.17,1.14c1,.38,1.5.86,1.5,1.73s-.67,1.71-2.06,1.71a3,3,0,0,1-1.5-.39Z"/><path class="cls-9" d="M170.67,40.86v2.46h2.86V40.86h.76v5.89h-.76V44h-2.86v2.76h-.77V40.86Z"/><path class="cls-9" d="M184.05,46.75l-.55-.57a2.46,2.46,0,0,1-1.72.67A1.67,1.67,0,0,1,180,45.19a1.94,1.94,0,0,1,1.15-1.72v0a2,2,0,0,1-.49-1.23,1.44,1.44,0,0,1,1.5-1.46,1.22,1.22,0,0,1,1.3,1.25c0,.62-.36,1.11-1.3,1.57v0c.5.58,1.06,1.22,1.44,1.64a4.49,4.49,0,0,0,.57-1.73h.7A4.5,4.5,0,0,1,184,45.7l1,1Zm-.93-1c-.35-.38-1-1.1-1.66-1.86a1.46,1.46,0,0,0-.76,1.21,1.17,1.17,0,0,0,1.22,1.19A1.63,1.63,0,0,0,183.12,45.73Zm-1.79-3.6a1.7,1.7,0,0,0,.45,1.07c.59-.34,1-.66,1-1.16a.69.69,0,0,0-.69-.76A.76.76,0,0,0,181.33,42.13Z"/><path class="cls-9" d="M194.51,46.57a3.78,3.78,0,0,1-1.56.28,2.75,2.75,0,0,1-2.9-3,2.92,2.92,0,0,1,3.07-3.09,3.26,3.26,0,0,1,1.4.26l-.19.62a2.7,2.7,0,0,0-1.18-.24,2.19,2.19,0,0,0-2.3,2.43,2.14,2.14,0,0,0,2.26,2.37,3.05,3.05,0,0,0,1.25-.25Z"/><path class="cls-9" d="M197.9,44.89l-.61,1.86h-.79l2-5.89h.91l2,5.89h-.81L200,44.89Zm1.94-.59-.58-1.7c-.14-.38-.22-.73-.31-1.07h0c-.09.34-.17.71-.29,1.07l-.58,1.7Z"/><path class="cls-9" d="M203.75,40.93a8.78,8.78,0,0,1,1.46-.12,2.45,2.45,0,0,1,1.7.48,1.5,1.5,0,0,1,.46,1.13,1.55,1.55,0,0,1-1.1,1.5v0a1.48,1.48,0,0,1,.86,1.19,9.72,9.72,0,0,0,.45,1.62h-.78a7.19,7.19,0,0,1-.39-1.41c-.17-.81-.5-1.12-1.19-1.14h-.71v2.55h-.76Zm.76,2.69h.77c.82,0,1.33-.45,1.33-1.12s-.55-1.09-1.35-1.09a3,3,0,0,0-.75.06Z"/><path class="cls-9" d="M209.9,40.93a8.78,8.78,0,0,1,1.46-.12,2.45,2.45,0,0,1,1.7.48,1.5,1.5,0,0,1,.46,1.13,1.54,1.54,0,0,1-1.1,1.5v0a1.48,1.48,0,0,1,.86,1.19,8.54,8.54,0,0,0,.46,1.62H213a7.19,7.19,0,0,1-.39-1.41c-.17-.81-.5-1.12-1.19-1.14h-.71v2.55h-.76Zm.76,2.69h.78c.81,0,1.32-.45,1.32-1.12s-.55-1.09-1.35-1.09a3,3,0,0,0-.75.06Z"/><path class="cls-9" d="M217.26,46.75v-2.5l-1.87-3.39h.88l.83,1.62c.21.45.4.81.58,1.22h0c.16-.39.37-.77.59-1.22l.85-1.62H220l-2,3.38v2.51Z"/></g></g></svg>