<svg version="1.2" xmlns="http://www.w3.org/2000/svg" viewBox="0 0 164 47" width="164" height="47">
	<title>logo_text-svg</title>
	<defs>
		<linearGradient id="g1" x2="1" gradientUnits="userSpaceOnUse" gradientTransform="matrix(17.4,0,0,37.942,-48.56,19.04)">
			<stop offset="0" stop-color="#f4ad45"/>
			<stop offset=".22" stop-color="#eee546"/>
			<stop offset=".59" stop-color="#f6d545"/>
			<stop offset=".79" stop-color="#f5d345"/>
			<stop offset=".86" stop-color="#f3cc45"/>
			<stop offset=".91" stop-color="#efc145"/>
			<stop offset=".95" stop-color="#e9b046"/>
			<stop offset=".99" stop-color="#e19a46"/>
			<stop offset="1" stop-color="#dd8e46"/>
		</linearGradient>
		<linearGradient id="g2" x2="1" gradientUnits="userSpaceOnUse" gradientTransform="matrix(17.4,0,0,37.942,-31.37,19.04)">
			<stop offset="0" stop-color="#f4ad45"/>
			<stop offset=".22" stop-color="#eee546"/>
			<stop offset=".59" stop-color="#f6d545"/>
			<stop offset=".79" stop-color="#f5d345"/>
			<stop offset=".86" stop-color="#f3cc45"/>
			<stop offset=".91" stop-color="#efc145"/>
			<stop offset=".95" stop-color="#e9b046"/>
			<stop offset=".99" stop-color="#e19a46"/>
			<stop offset="1" stop-color="#dd8e46"/>
		</linearGradient>
		<linearGradient id="g3" x2="1" gradientUnits="userSpaceOnUse" gradientTransform="matrix(24.1,0,0,31.15,-30.65,22.88)">
			<stop offset="0" stop-color="#f4ad45"/>
			<stop offset=".22" stop-color="#eee546"/>
			<stop offset=".59" stop-color="#f6d545"/>
			<stop offset=".79" stop-color="#f5d345"/>
			<stop offset=".86" stop-color="#f3cc45"/>
			<stop offset=".91" stop-color="#efc145"/>
			<stop offset=".95" stop-color="#e9b046"/>
			<stop offset=".99" stop-color="#e19a46"/>
			<stop offset="1" stop-color="#dd8e46"/>
		</linearGradient>
		<linearGradient id="g4" x2="1" gradientUnits="userSpaceOnUse" gradientTransform="matrix(24.1,0,0,30.975,-56,22.88)">
			<stop offset="0" stop-color="#f4ad45"/>
			<stop offset=".22" stop-color="#eee546"/>
			<stop offset=".59" stop-color="#f6d545"/>
			<stop offset=".79" stop-color="#f5d345"/>
			<stop offset=".86" stop-color="#f3cc45"/>
			<stop offset=".91" stop-color="#efc145"/>
			<stop offset=".95" stop-color="#e9b046"/>
			<stop offset=".99" stop-color="#e19a46"/>
			<stop offset="1" stop-color="#dd8e46"/>
		</linearGradient>
		<linearGradient id="g5" x2="1" gradientUnits="userSpaceOnUse" gradientTransform="matrix(18.57,0,0,11.706,-48.44,40.95)">
			<stop offset="0" stop-color="#f4ad45"/>
			<stop offset=".22" stop-color="#eee546"/>
			<stop offset=".59" stop-color="#f6d545"/>
			<stop offset=".79" stop-color="#f5d345"/>
			<stop offset=".86" stop-color="#f3cc45"/>
			<stop offset=".91" stop-color="#efc145"/>
			<stop offset=".95" stop-color="#e9b046"/>
			<stop offset=".99" stop-color="#e19a46"/>
			<stop offset="1" stop-color="#dd8e46"/>
		</linearGradient>
		<linearGradient id="g6" x2="1" gradientUnits="userSpaceOnUse" gradientTransform="matrix(18.57,0,0,11.764,-32.55,40.95)">
			<stop offset="0" stop-color="#f4ad45"/>
			<stop offset=".22" stop-color="#eee546"/>
			<stop offset=".59" stop-color="#f6d545"/>
			<stop offset=".79" stop-color="#f5d345"/>
			<stop offset=".86" stop-color="#f3cc45"/>
			<stop offset=".91" stop-color="#efc145"/>
			<stop offset=".95" stop-color="#e9b046"/>
			<stop offset=".99" stop-color="#e19a46"/>
			<stop offset="1" stop-color="#dd8e46"/>
		</linearGradient>
		<linearGradient id="g7" x2="1" gradientUnits="userSpaceOnUse" gradientTransform="matrix(3.91,0,0,3.913,-33.11,40.38)">
			<stop offset="0" stop-color="#f4ad45"/>
			<stop offset=".22" stop-color="#eee546"/>
			<stop offset=".59" stop-color="#f6d545"/>
			<stop offset=".79" stop-color="#f5d345"/>
			<stop offset=".86" stop-color="#f3cc45"/>
			<stop offset=".91" stop-color="#efc145"/>
			<stop offset=".95" stop-color="#e9b046"/>
			<stop offset=".99" stop-color="#e19a46"/>
			<stop offset="1" stop-color="#dd8e46"/>
		</linearGradient>
		<linearGradient id="g8" x2="1" gradientUnits="userSpaceOnUse" gradientTransform="matrix(23.39,0,0,22.89,1.24,23.42)">
			<stop offset="0" stop-color="#f4ad45"/>
			<stop offset=".22" stop-color="#eee546"/>
			<stop offset=".59" stop-color="#f6d545"/>
			<stop offset=".79" stop-color="#f5d345"/>
			<stop offset=".86" stop-color="#f3cc45"/>
			<stop offset=".91" stop-color="#efc145"/>
			<stop offset=".95" stop-color="#e9b046"/>
			<stop offset=".99" stop-color="#e19a46"/>
			<stop offset="1" stop-color="#dd8e46"/>
		</linearGradient>
		<linearGradient id="g9" x2="1" gradientUnits="userSpaceOnUse" gradientTransform="matrix(17.23,0,0,22.639,85.75,23.42)">
			<stop offset="0" stop-color="#f4ad45"/>
			<stop offset=".22" stop-color="#eee546"/>
			<stop offset=".59" stop-color="#f6d545"/>
			<stop offset=".79" stop-color="#f5d345"/>
			<stop offset=".86" stop-color="#f3cc45"/>
			<stop offset=".91" stop-color="#efc145"/>
			<stop offset=".95" stop-color="#e9b046"/>
			<stop offset=".99" stop-color="#e19a46"/>
			<stop offset="1" stop-color="#dd8e46"/>
		</linearGradient>
	</defs>
	<style>
		.s0 { fill: url(#g1) } 
		.s1 { fill: url(#g2) } 
		.s2 { fill: url(#g3) } 
		.s3 { fill: url(#g4) } 
		.s4 { fill: url(#g5) } 
		.s5 { fill: url(#g6) } 
		.s6 { fill: url(#g7) } 
		.s7 { fill: url(#g8) } 
		.s8 { fill: #ffffff } 
		.s9 { fill: url(#g9) } 
	</style>
	<g id="Layer_2">
		<g id="Слой_1">
			<path id="Layer" fill-rule="evenodd" class="s0" d="m-32.9 0.2q0.5 0.1 0.9 0.5 0.4 0.4 0.6 0.8 0.2 0.5 0.3 1 0 0.6-0.1 1.1-0.1 0.5-0.4 1-0.3 0.4-0.8 0.7-0.4 0.3-1 0.4-0.5 0-1-0.1-0.5-0.2-0.9-0.6-0.4-0.3-0.6-0.8-0.2-0.5-0.2-1 0-0.4 0-0.7 0-0.4 0.2-0.7 0.1-0.3 0.2-0.6 0.2-0.3 0.5-0.6c-3 1.9-7.5 7.2-0.6 17.9 0 0 6.7 8.7 3.6 15.4q-0.4 1-1.1 1.9-0.7 0.8-1.6 1.4-0.9 0.5-2 0.7-1 0.2-2.1 0.1c0 0-9.4-1.8-9.5-15.3 0 0-0.7-9.5 3.6-15.9q0.9-1.4 2.1-2.6 1.2-1.1 2.7-2 1.4-0.9 3-1.4 1.6-0.6 3.2-0.8 0.5 0 1 0.2zm-3.3 19.9c-0.5-0.8-1.2-1.8-1.4-2.1-6.1-11.3-0.5-16.1 1.5-17.1 0 0-4.4 0.6-8 7q-0.8 1.5-1.4 3.1-0.6 1.6-1 3.2-0.4 1.7-0.6 3.4-0.1 1.7-0.1 3.4c0.2 13 8.2 16.2 8.2 16.2 4.6 0.6 5.8-4.2 5.8-4.2 1.9-4.5-1.3-10.3-3-12.9zm1.5-19.3q-0.4 0.3-0.6 0.6-0.3 0.4-0.4 0.9-0.1 0.4 0 0.8 0 0.5 0.2 0.9 0.2 0.4 0.5 0.7 0.3 0.3 0.7 0.5 0.4 0.1 0.9 0.1 0.4-0.1 0.8-0.4 0.4-0.2 0.6-0.6 0.3-0.3 0.4-0.8 0.1-0.4 0-0.9 0-0.4-0.2-0.8-0.1-0.4-0.5-0.7-0.3-0.3-0.7-0.5-0.4-0.1-0.9-0.1-0.4 0.1-0.8 0.3z"/>
			<path id="Layer" fill-rule="evenodd" class="s1" d="m-28.6 0q1.6 0.2 3.2 0.8 1.6 0.5 3 1.4 1.4 0.9 2.6 2 1.2 1.2 2.2 2.6c4.3 6.4 3.6 15.9 3.6 15.9-0.1 13.5-9.5 15.3-9.5 15.3q-1.1 0.1-2.1-0.1-1.1-0.2-2-0.7-0.9-0.6-1.6-1.4-0.7-0.9-1.1-1.9c-3.1-6.7 3.6-15.4 3.6-15.4 6.9-10.7 2.4-16-0.6-17.9q0.3 0.3 0.5 0.6 0.1 0.3 0.2 0.6 0.2 0.3 0.2 0.7 0 0.3 0 0.7 0 0.5-0.2 1-0.2 0.5-0.6 0.8-0.4 0.4-0.9 0.6-0.5 0.1-1.1 0.1-0.5-0.1-0.9-0.4-0.5-0.3-0.8-0.7-0.3-0.5-0.4-1-0.1-0.5-0.1-1.1 0.1-0.5 0.3-1 0.2-0.4 0.6-0.8 0.4-0.3 0.8-0.5 0.5-0.2 1.1-0.2zm-0.7 33c0 0 1.1 4.8 5.7 4.2 0 0 8-3.2 8.3-16.2q0-1.7-0.2-3.4-0.1-1.7-0.5-3.4-0.4-1.6-1-3.2-0.6-1.6-1.4-3.1c-3.7-6.4-8-7-8-7 2 1 7.6 5.8 1.5 17.1-0.2 0.3-0.9 1.3-1.4 2.1-1.7 2.6-4.9 8.4-3 12.9zm0.6-32.5q-0.4 0-0.8 0.1-0.4 0.2-0.8 0.5-0.3 0.3-0.5 0.7-0.1 0.4-0.1 0.8-0.1 0.5 0 0.9 0.1 0.5 0.3 0.8 0.3 0.4 0.7 0.6 0.4 0.3 0.8 0.4 0.4 0 0.9-0.1 0.4-0.2 0.7-0.5 0.3-0.3 0.5-0.7 0.2-0.4 0.2-0.9 0.1-0.4 0-0.8-0.1-0.5-0.4-0.9-0.3-0.3-0.6-0.6-0.4-0.2-0.9-0.3z"/>
			<path id="Layer" fill-rule="evenodd" class="s2" d="m-12 8q1.2 1.1 2.2 2.3 0.9 1.3 1.6 2.8 0.7 1.4 1.1 3 0.4 1.5 0.5 3.1c0.3 7-5.1 13.3-5.1 13.3-6.9 9.2-15.4 5-15.4 5-4.6-2.7-3.4-6.9-3.4-6.9 0.7-5.8 8.8-8.3 10.6-8.8l1-0.3c10.3-3.4 9.1-9.3 7.7-12.3q0.1 0.3 0.1 0.6 0 0.3-0.1 0.6-0.1 0.3-0.2 0.6-0.2 0.3-0.4 0.5c-0.7 0.7-1.7 1-2.7 0.7-0.9-0.3-1.6-1.2-1.6-2.2-0.1-1 0.5-1.9 1.4-2.4 0.9-0.4 2-0.3 2.7 0.4zm-17.2 22.4q-0.1 0.9 0 1.8 0.2 1 0.6 1.8 0.4 0.8 1.1 1.5 0.7 0.7 1.5 1.1c0.6 0.3 7 3.6 13.8-5.3 0 0 4.8-5.4 4.7-12-0.1-6.4-3.1-9.4-3.1-9.4 1.4 2.5 2.5 9-7.6 12.5-0.3 0.1-10.1 2.7-11 8zm14.2-19c0.6 0.5 1.5 0.7 2.3 0.3 0.7-0.3 1.2-1.1 1.2-2-0.1-0.8-0.6-1.5-1.4-1.8-0.8-0.3-1.7-0.1-2.2 0.5q-0.3 0.3-0.5 0.7-0.1 0.4-0.1 0.8 0 0.4 0.2 0.8 0.2 0.4 0.5 0.7z"/>
			<path id="Layer" fill-rule="evenodd" class="s3" d="m-47.3 7.9c0.9 0.8 1.2 2.2 0.5 3.3-0.6 1-1.9 1.4-3.1 1-1.1-0.5-1.7-1.8-1.4-3-1.5 3-2.6 8.9 7.7 12.3l1 0.3c1.8 0.5 9.9 3 10.6 8.8 0 0 1.1 4.2-3.4 6.8 0 0-8.5 4.3-15.4-5 0 0-5.4-6.2-5.2-13.2q0.1-1.6 0.5-3.2 0.4-1.5 1.1-2.9 0.7-1.5 1.7-2.8 0.9-1.2 2.1-2.3c1-0.8 2.3-0.8 3.3-0.1zm3 14.5c-10.1-3.5-9-10-7.6-12.5-0.1 0-3.1 3-3.2 9.4-0.1 6.6 4.8 12 4.8 12 6.8 8.9 13.2 5.6 13.8 5.3q0.8-0.4 1.5-1.1 0.6-0.7 1.1-1.5 0.4-0.8 0.5-1.8 0.2-0.9 0-1.9c-0.9-5.2-10.7-7.8-10.9-7.9zm-3.2-11q0.3-0.3 0.5-0.7 0.2-0.4 0.2-0.8 0-0.4-0.1-0.8-0.2-0.4-0.5-0.7c-0.5-0.6-1.4-0.8-2.2-0.5-0.8 0.2-1.4 1-1.4 1.8 0 0.9 0.4 1.6 1.2 2 0.8 0.4 1.7 0.2 2.3-0.4z"/>
			<path id="Layer" fill-rule="evenodd" class="s4" d="m-29.8 40.5q0 0.3-0.1 0.6-0.1 0.2-0.3 0.5-0.2 0.2-0.4 0.3c-0.3 0.2-0.7 0.3-1.1 0.2-0.4-0.2-0.7-0.4-0.9-0.8-0.2-0.3-0.2-0.7-0.1-1.1 0.2-0.3 0.4-0.6 0.8-0.8q0.2-0.1 0.3-0.1 0.2-0.1 0.4-0.1 0.1 0 0.3 0.1 0.2 0 0.3 0.1c-1.5-1.2-4.8-2.7-8.2 2.8 0 0-2.6 5.1-6.3 4.6q-0.6 0-1.1-0.2-0.6-0.3-1-0.7-0.4-0.3-0.7-0.8-0.3-0.6-0.5-1.1c0 0-1-5.3 5-7.7 0 0 4.3-2 8-0.9q0.9 0.3 1.7 0.7 0.8 0.5 1.5 1.1 0.7 0.6 1.2 1.3 0.6 0.7 1 1.5 0.1 0.2 0.2 0.5zm-0.8-1.1q0 0 0 0 0 0 0 0zm-8.9 1.7c4.3-5.1 7.7-3.1 8.6-2.1 0 0-1.1-1.8-4.7-2.7-3.5-0.9-7.4 1.3-7.4 1.3-5.3 3.4-3.5 6.3-2.9 7q0 0 0.1 0.1 0.1 0.1 0.1 0.1 0 0 0.1 0c2.5 1.3 6.1-3.7 6.1-3.7zm7.9 0.7c0.3 0.1 0.7 0.1 0.9 0 0.3-0.2 0.6-0.5 0.6-0.8 0.1-0.3 0.1-0.6-0.1-0.9q-0.2-0.4-0.7-0.5-0.4-0.1-0.8 0.1-0.4 0.2-0.6 0.6-0.2 0.4 0 0.9c0.1 0.3 0.4 0.5 0.7 0.6z"/>
			<path id="Layer" fill-rule="evenodd" class="s5" d="m-32.4 40q0.4-0.8 1-1.5 0.5-0.7 1.2-1.3 0.7-0.6 1.5-1.1 0.8-0.4 1.7-0.7c3.7-1.1 8 0.9 8 0.9 6 2.4 5 7.7 5 7.7q-0.1 0.6-0.4 1.1-0.3 0.5-0.7 0.9-0.5 0.4-1 0.6-0.6 0.2-1.2 0.2c-3.7 0.5-6.2-4.5-6.2-4.5-3.5-5.5-6.8-4.1-8.3-2.9 0.6-0.3 1.4-0.1 1.8 0.4 0.4 0.6 0.4 1.3-0.1 1.8-0.5 0.5-1.2 0.6-1.8 0.2-0.6-0.4-0.8-1.2-0.4-1.8zm9.4 1.1c0 0 3.7 5 6.2 3.8q0 0 0-0.1 0.1 0 0.1 0 0.1-0.1 0.1-0.1 0 0 0.1-0.1c0.5-0.6 2.4-3.5-2.9-7 0 0-3.9-2.1-7.5-1.3-3.5 0.9-4.7 2.7-4.7 2.7 0.9-0.9 4.3-3 8.6 2.1zm-7.1 0.1q0.1-0.4 0-0.9-0.2-0.4-0.6-0.6-0.4-0.2-0.9-0.1-0.4 0.1-0.6 0.5c-0.2 0.3-0.3 0.6-0.2 1 0.1 0.3 0.3 0.5 0.6 0.7 0.3 0.1 0.7 0.2 1 0.1 0.3-0.2 0.5-0.4 0.7-0.7z"/>
			<path id="Layer" class="s6" d="m-29.2 40.4c0 0.8-0.5 1.5-1.2 1.9-0.7 0.3-1.6 0.1-2.2-0.4-0.6-0.6-0.8-1.5-0.5-2.2 0.4-0.8 1.1-1.3 1.9-1.3q0.4 0 0.8 0.2 0.3 0.1 0.6 0.4 0.3 0.3 0.4 0.6 0.2 0.4 0.2 0.8z"/>
			<path id="Layer" class="s7" d="m5.8 14.3q-0.7 1-1.2 2.1-0.5 1.1-0.8 2.3-0.4 1.1-0.5 2.3-0.1 1.3-0.1 2.5 0 0.4 0 0.9 0.1 0.5 0.1 0.9 0 0.5 0.1 0.9 0 0.5 0.1 1 0.1 0.6 0.3 1.3 0.1 0.6 0.3 1.2 0.3 0.6 0.6 1.2 0.3 0.6 0.6 1.2-1-0.8-1.8-1.8-0.8-0.9-1.3-2.1-0.5-1.1-0.8-2.3-0.2-1.2-0.2-2.5 0-0.7 0.1-1.5 0.1-0.7 0.2-1.4 0.2-0.7 0.5-1.4 0.2-0.7 0.6-1.3 0.3-0.6 0.6-1 0.4-0.5 0.8-1 0.4-0.4 0.8-0.8 0.5-0.4 1-0.7zm13.7 8.6v10.6q-0.7 0.3-1.4 0.5-0.7 0.3-1.4 0.5-0.8 0.1-1.5 0.2-0.7 0.1-1.5 0.2-0.9 0-1.8-0.2-0.9-0.1-1.7-0.5-0.9-0.3-1.6-0.8-0.8-0.5-1.4-1.2-0.3-0.4-0.6-0.8-0.3-0.4-0.5-0.8-0.3-0.5-0.5-0.9-0.1-0.5-0.3-0.9-0.1-0.6-0.3-1.2-0.1-0.6-0.1-1.2-0.1-0.6-0.2-1.2 0-0.6 0-1.2 0-12 10-12 0.9 0 1.8 0.1 0.9 0.1 1.8 0.2 0.9 0.2 1.8 0.4 0.9 0.2 1.7 0.5 0 2 0.1 3c0.1 0.7 0.1 1.4 0.1 2.2h-0.4q-0.2-0.5-0.4-1-0.2-0.5-0.5-1-0.3-0.4-0.7-0.8-0.4-0.4-0.8-0.7-0.5-0.4-1.1-0.6-0.5-0.3-1.1-0.4-0.6-0.2-1.2-0.3-0.5 0-1.1 0-8.2 0-8.2 9.7 0 9.8 6.9 10 0.6 0 1.1 0 0.5-0.1 1-0.3 0.5-0.1 1-0.4 0.5-0.3 0.8-0.6 0.2-0.4 0.2-0.7 0.1-0.3 0.2-0.6 0-0.3 0-0.7 0.1-0.3 0-0.6v-2.9c0-2-0.7-3.2-2.2-3.5v-0.3l2.2 0.1zm1.5 10.1v-10.1c0.7 0 1.3-0.1 1.8-0.1q1.4-0.2 1.8-0.2v0.4q-1.9 0.8-1.9 4.1v5.3q-0.1 0.1-0.2 0.1-0.1 0-0.2 0-0.1 0.1-0.2 0.1-0.1 0-0.2 0.1-0.1 0-0.1 0-0.1 0-0.2 0.1 0 0-0.1 0-0.1 0-0.1 0.1-0.1 0-0.1 0-0.1 0-0.1 0-0.1 0-0.1 0-0.1 0.1-0.1 0.1z"/>
			<path id="Layer" fill-rule="evenodd" class="s8" d="m37.4 28.7c0 4.2-2.9 6-5.6 6-3 0-5.5-2.3-5.5-5.9 0-3.8 2.5-6 5.7-6 3.1 0 5.4 2.4 5.4 5.9zm-9 0.1c0 2.5 1.4 4.3 3.5 4.3 2 0 3.4-1.8 3.4-4.4 0-1.9-1-4.3-3.4-4.3-2.4 0-3.5 2.2-3.5 4.4z"/>
			<path id="Layer" class="s8" d="m39.5 17.8h2v16.7h-2z"/>
			<path id="Layer" fill-rule="evenodd" class="s8" d="m54.2 17.8v13.7c0 1 0.1 2.2 0.1 3h-1.8l-0.1-2h-0.1q-0.3 0.5-0.7 0.9-0.4 0.4-0.9 0.7-0.5 0.3-1.1 0.5-0.5 0.1-1.1 0.1c-2.8 0-4.9-2.3-4.9-5.8 0-3.8 2.3-6.1 5.1-6.1q0.5 0 1 0.1 0.5 0.1 0.9 0.3 0.5 0.2 0.9 0.6 0.3 0.3 0.6 0.7v-6.7zm-2 9.7q0-0.1 0-0.2 0-0.1 0-0.3-0.1-0.1-0.1-0.2-0.1-0.5-0.4-0.9-0.2-0.5-0.7-0.8-0.4-0.3-0.9-0.5-0.5-0.2-1-0.1c-2.1 0-3.4 1.8-3.4 4.3 0 2.3 1.2 4.2 3.4 4.2q0.5 0 1-0.2 0.5-0.1 0.9-0.5 0.4-0.3 0.7-0.8 0.3-0.4 0.4-0.9 0-0.1 0-0.2 0-0.2 0.1-0.3 0-0.1 0-0.2 0-0.1 0-0.2c0-0.1 0-2.1 0-2.2z"/>
			<path id="Layer" fill-rule="evenodd" class="s8" d="m58.2 29.1q0 0.8 0.2 1.6 0.3 0.7 0.9 1.3 0.5 0.6 1.3 0.9 0.7 0.2 1.5 0.2 0.4 0 0.8 0 0.4-0.1 0.8-0.1 0.4-0.1 0.8-0.2 0.4-0.1 0.8-0.3l0.4 1.5q-0.5 0.2-1 0.3-0.4 0.2-0.9 0.2-0.5 0.1-1 0.2-0.5 0-1 0c-3.5 0-5.5-2.3-5.5-5.8 0-3.4 2-6.1 5.3-6.1 3.7 0 4.7 3.3 4.7 5.4q0 0.1 0 0.2 0 0.1 0 0.3 0 0.1 0 0.2-0.1 0.1-0.1 0.3zm6.1-1.5c0-1.3-0.6-3.4-2.9-3.4-2.1 0-3 1.9-3.2 3.4z"/>
			<path id="Layer" class="s8" d="m68.3 26.1c0-1.2 0-2.1-0.1-3h1.8l0.1 1.8q0.3-0.4 0.7-0.8 0.4-0.4 0.9-0.7 0.5-0.3 1.1-0.4 0.5-0.2 1.1-0.2c1.6 0 4 1 4 4.9v6.8h-2.1v-6.6c0-1.8-0.7-3.4-2.6-3.4q-0.5 0-0.9 0.2-0.5 0.2-0.8 0.4-0.4 0.3-0.7 0.7-0.3 0.4-0.4 0.8 0 0.2-0.1 0.3 0 0.1 0 0.2 0 0.2 0 0.3 0 0.1 0 0.2v6.9h-2.1z"/>
			<path id="Layer" class="s9" d="m90.1 12.4v22q-1.8 0-4.3 0.3v-0.4q0.3-0.1 0.6-0.3 0.3-0.1 0.6-0.4 0.2-0.2 0.5-0.5 0.2-0.2 0.3-0.6 0.2-0.5 0.3-1 0.2-0.6 0.2-1.1 0.1-0.5 0.1-1.1 0.1-0.5 0-1.1v-10.3q0.1-0.5 0.1-1-0.1-0.5-0.2-1-0.1-0.5-0.2-1-0.2-0.5-0.4-1-0.2-0.2-0.4-0.5-0.2-0.2-0.4-0.4-0.3-0.1-0.6-0.3-0.3-0.1-0.5-0.2v-0.4q2.2 0.3 4.3 0.3zm2.5 22h-0.9v-22h5.2q2.3 0 6-0.2 0 0.5 0 1.4c0 0.3 0 1 0.1 1.9 0 0.8 0 1.5 0 1.6v0.5h-0.4q-0.6-3.8-3.6-3.8h-4q-0.2 0-0.4 0-0.1 0.1-0.3 0.1-0.1 0-0.3 0-0.1 0.1-0.3 0.1-0.1 0.6-0.1 1.1-0.1 0.6-0.1 1.1 0 0.6 0 1.1-0.1 0.6-0.1 1.1v4.4l3.7-0.1q0.4 0.1 0.9 0.1 0.4-0.1 0.9-0.1 0.4-0.1 0.8-0.2 0.4-0.2 0.8-0.3 0.3-0.2 0.6-0.4 0.2-0.2 0.4-0.5 0.1-0.2 0.3-0.5 0.1-0.3 0.1-0.6h0.5q-0.2 2.2-0.2 3.1 0 0.5 0.1 1.8c0.1 0.8 0.1 1.3 0.1 1.7v0.7h-0.5q-0.1-3.3-3.5-3.3h-5v4.8c0 3.1 1 4.9 2.9 5.3v0.4q-3-0.3-3.7-0.3z"/>
			<path id="Layer" class="s8" d="m105.6 17.8h2.1v16.6h-2.1z"/>
			<path id="Layer" fill-rule="evenodd" class="s8" d="m120.8 28.6c0 4.3-2.9 6-5.6 6-3 0-5.5-2.2-5.5-5.8 0-3.8 2.5-6 5.6-6 3.2 0 5.5 2.4 5.5 5.8zm-9 0.2c0 2.5 1.4 4.3 3.4 4.3 2 0 3.5-1.8 3.5-4.4 0-1.9-1-4.3-3.4-4.3-2.4 0-3.5 2.2-3.5 4.4z"/>
			<path id="Layer" class="s8" d="m123.5 23.1l1.5 5.7c0.3 1.3 0.6 2.5 0.8 3.7h0.1c0.2-1.2 0.6-2.4 1-3.6l1.8-5.8h1.8l1.7 5.7c0.5 1.3 0.8 2.5 1 3.7h0.1q0.1-0.5 0.2-1 0.1-0.4 0.2-0.9 0.1-0.5 0.2-0.9 0.1-0.5 0.3-0.9l1.6-5.7h2l-3.7 11.3h-1.8l-1.7-5.4c-0.4-1.3-0.7-2.4-1-3.7h-0.1q-0.1 0.4-0.2 0.9-0.1 0.5-0.2 1-0.1 0.4-0.3 0.9-0.1 0.5-0.3 0.9l-1.8 5.4h-1.9l-3.4-11.3z"/>
			<path id="Layer" fill-rule="evenodd" class="s8" d="m140.3 29.1q-0.1 0.8 0.2 1.6 0.2 0.7 0.8 1.3 0.6 0.6 1.3 0.8 0.8 0.3 1.6 0.3 0.4 0 0.8-0.1 0.4 0 0.8-0.1 0.4 0 0.7-0.1 0.4-0.2 0.8-0.3l0.4 1.5q-0.5 0.1-0.9 0.3-0.5 0.1-1 0.2-0.5 0.1-1 0.1-0.4 0.1-0.9 0.1c-3.5 0-5.6-2.3-5.6-5.8 0-3.4 2-6.1 5.3-6.1 3.7 0 4.7 3.3 4.7 5.4q0 0.1 0 0.2 0 0.1 0 0.3 0 0.1 0 0.2 0 0.1-0.1 0.3zm6.1-1.5c0-1.3-0.6-3.3-2.9-3.3-2.1 0-3 1.9-3.1 3.3z"/>
			<path id="Layer" class="s8" d="m150.3 26.6c0-1.3 0-2.5-0.1-3.5h1.8l0.1 2.2h0.1q0.1-0.5 0.4-1 0.3-0.4 0.7-0.7 0.5-0.4 1-0.6 0.5-0.1 1-0.2 0.1 0 0.2 0 0 0 0.1 0 0.1 0 0.2 0 0 0 0.1 0v2q-0.1 0-0.2 0-0.1 0-0.2 0 0 0-0.1 0-0.1 0-0.2 0-0.5 0-1 0.2-0.5 0.2-0.9 0.6-0.4 0.3-0.6 0.8-0.2 0.5-0.3 1 0 0.1 0 0.3 0 0.1 0 0.2 0 0.1 0 0.3-0.1 0.1-0.1 0.2v6.1h-2z"/>
			<path id="Layer" class="s8" d="m157.1 32.3q0.3 0.2 0.6 0.4 0.4 0.1 0.7 0.2 0.3 0.1 0.7 0.2 0.4 0 0.7 0c1.5 0 2.2-0.7 2.2-1.7 0-0.9-0.6-1.5-2.1-2-2-0.8-3-1.9-3-3.2 0-1.9 1.5-3.4 3.9-3.4q0.4 0 0.8 0.1 0.3 0 0.7 0.1 0.3 0.1 0.7 0.2 0.3 0.2 0.6 0.3l-0.5 1.5q-0.2-0.1-0.5-0.2-0.3-0.2-0.6-0.3-0.3 0-0.6-0.1-0.3 0-0.6 0c-1.2 0-1.9 0.7-1.9 1.5 0 0.9 0.7 1.4 2.1 2 2 0.7 3 1.7 3 3.4 0 2-1.5 3.4-4.2 3.4q-0.4 0-0.8-0.1-0.4 0-0.8-0.1-0.4-0.1-0.8-0.3-0.4-0.1-0.8-0.3z"/>
			<path id="Layer" class="s8" d="m98.9 46.6q-0.2 0-0.4 0.1-0.1 0.1-0.3 0.1-0.2 0-0.4 0-0.2 0.1-0.4 0-0.6 0.1-1.2-0.1-0.6-0.3-1-0.7-0.4-0.4-0.6-1-0.2-0.6-0.1-1.1-0.1-0.7 0.1-1.3 0.3-0.5 0.7-1 0.4-0.4 1-0.6 0.6-0.3 1.2-0.2 0.2 0 0.4 0 0.2 0 0.3 0 0.2 0 0.4 0.1 0.2 0 0.3 0.1l-0.2 0.6q-0.1 0-0.2-0.1-0.2 0-0.3 0-0.2-0.1-0.3-0.1-0.2 0-0.3 0-0.5 0-1 0.2-0.4 0.1-0.8 0.5-0.3 0.3-0.4 0.8-0.2 0.4-0.1 0.9-0.1 0.5 0.1 0.9 0.1 0.5 0.4 0.8 0.4 0.4 0.8 0.6 0.4 0.1 0.9 0.1 0.2 0 0.3 0 0.2 0 0.4-0.1 0.1 0 0.3 0 0.1-0.1 0.3-0.2z"/>
			<path id="Layer" fill-rule="evenodd" class="s8" d="m102.3 44.9l-0.6 1.9h-0.8l2-5.9h0.9l2 5.9h-0.8l-0.6-1.9zm1.9-0.6l-0.6-1.7q-0.2-0.6-0.3-1.1-0.1 0.5-0.3 1.1l-0.6 1.7z"/>
			<path id="Layer" class="s8" d="m108.1 45.8q0.1 0.1 0.3 0.2 0.1 0.1 0.3 0.1 0.2 0.1 0.4 0.1 0.1 0 0.3 0c0.8 0 1.3-0.4 1.3-1 0-0.6-0.4-0.8-1.2-1.1-1-0.4-1.5-0.9-1.5-1.7q0-0.4 0.2-0.7 0.1-0.3 0.4-0.5 0.3-0.3 0.6-0.4 0.3-0.1 0.7 0 0.2 0 0.3 0 0.2 0 0.4 0 0.1 0.1 0.3 0.1 0.1 0.1 0.3 0.2l-0.2 0.6q-0.2-0.1-0.3-0.1-0.1-0.1-0.3-0.1-0.1-0.1-0.3-0.1-0.1 0-0.2 0c-0.8 0-1.2 0.5-1.2 0.9 0 0.4 0.4 0.8 1.2 1.1 1 0.4 1.5 0.9 1.5 1.8 0 0.8-0.7 1.7-2 1.7q-0.2 0-0.4-0.1-0.2 0-0.4 0-0.2-0.1-0.4-0.2-0.2 0-0.3-0.1z"/>
			<path id="Layer" class="s8" d="m114.7 40.9v2.4h2.8v-2.4h0.8v5.9h-0.8v-2.8h-2.8v2.8h-0.8v-5.9z"/>
			<path id="Layer" fill-rule="evenodd" class="s8" d="m128.1 46.8l-0.6-0.6q-0.2 0.1-0.4 0.3-0.2 0.1-0.4 0.2-0.2 0.1-0.4 0.1-0.3 0.1-0.5 0.1-0.4 0-0.7-0.1-0.3-0.2-0.6-0.4-0.2-0.2-0.4-0.5-0.1-0.4-0.1-0.7 0-0.3 0.1-0.5 0.1-0.3 0.2-0.5 0.2-0.3 0.4-0.4 0.2-0.2 0.4-0.3-0.1-0.2-0.1-0.3-0.1-0.1-0.2-0.3-0.1-0.2-0.1-0.3 0-0.2 0-0.4 0-0.3 0.1-0.5 0.1-0.3 0.3-0.5 0.2-0.2 0.5-0.3 0.3-0.1 0.6-0.1 0.2 0 0.5 0.1 0.2 0 0.4 0.2 0.2 0.2 0.3 0.4 0.1 0.3 0.1 0.5c0 0.7-0.4 1.1-1.3 1.6 0.5 0.6 1 1.2 1.4 1.6q0.1-0.2 0.2-0.4 0.1-0.2 0.2-0.4 0-0.2 0.1-0.4 0-0.3 0.1-0.5h0.7q-0.1 0.3-0.1 0.6-0.1 0.3-0.2 0.6-0.1 0.2-0.3 0.5-0.1 0.3-0.3 0.5l1 1zm-2.6-2.8q-0.2 0-0.3 0.2-0.1 0.1-0.2 0.3-0.1 0.1-0.2 0.3 0 0.2 0 0.4-0.1 0.2 0 0.4 0.1 0.3 0.3 0.4 0.2 0.2 0.4 0.3 0.2 0.1 0.5 0.1 0.1 0 0.3-0.1 0.2 0 0.3-0.1 0.2-0.1 0.3-0.2 0.2-0.1 0.3-0.2c-0.4-0.4-1-1.1-1.7-1.8zm-0.1-1.8q0 0.2 0 0.3 0.1 0.2 0.1 0.3 0.1 0.1 0.1 0.3 0.1 0.1 0.2 0.2c0.6-0.3 1-0.7 1-1.2q0-0.1 0-0.3 0-0.1-0.1-0.2-0.1-0.1-0.3-0.2-0.1 0-0.3 0-0.1 0-0.3 0-0.1 0.1-0.2 0.2-0.1 0.1-0.2 0.3 0 0.1 0 0.3zm1.8 3.6z"/>
			<path id="Layer" class="s8" d="m138.5 46.6q-0.2 0-0.4 0.1-0.2 0.1-0.4 0.1-0.2 0-0.4 0-0.2 0.1-0.4 0-0.6 0.1-1.1-0.1-0.6-0.3-1-0.7-0.4-0.4-0.6-1-0.2-0.6-0.2-1.1 0-0.7 0.2-1.3 0.3-0.5 0.7-1 0.4-0.4 1-0.6 0.6-0.3 1.2-0.2 0.2 0 0.4 0 0.2 0 0.3 0 0.2 0 0.4 0.1 0.2 0 0.3 0.1l-0.2 0.6q-0.1 0-0.3-0.1-0.1 0-0.2 0-0.2-0.1-0.3-0.1-0.2 0-0.4 0-0.4 0-0.9 0.2-0.4 0.1-0.8 0.5-0.3 0.3-0.5 0.8-0.1 0.4-0.1 0.9 0 0.5 0.1 0.9 0.2 0.5 0.5 0.8 0.4 0.4 0.8 0.6 0.4 0.1 0.9 0.1 0.2 0 0.3 0 0.2 0 0.3-0.1 0.2 0 0.4 0 0.1-0.1 0.3-0.2z"/>
			<path id="Layer" fill-rule="evenodd" class="s8" d="m141.9 44.9l-0.6 1.9h-0.8l2-5.9h0.9l2 5.9h-0.8l-0.6-1.9zm1.9-0.6l-0.5-1.7c-0.2-0.4-0.3-0.7-0.4-1.1 0 0.4-0.1 0.7-0.2 1.1l-0.6 1.7z"/>
			<path id="Layer" fill-rule="evenodd" class="s8" d="m147.8 40.9q0.1 0 0.3 0 0.2 0 0.4-0.1 0.2 0 0.3 0 0.2 0 0.4 0 0.2 0 0.5 0 0.2 0 0.4 0.1 0.2 0.1 0.4 0.2 0.2 0.1 0.4 0.2 0.1 0.1 0.2 0.2 0.1 0.2 0.2 0.3 0 0.2 0 0.3 0.1 0.2 0.1 0.3 0 0.3-0.1 0.5-0.1 0.3-0.2 0.5-0.2 0.2-0.4 0.3-0.2 0.1-0.4 0.2 0.1 0.1 0.3 0.2 0.1 0.1 0.3 0.3 0.1 0.2 0.1 0.3 0.1 0.2 0.1 0.4 0.1 0.2 0.1 0.4 0.1 0.2 0.1 0.4 0.1 0.2 0.1 0.4 0.1 0.2 0.2 0.4h-0.8q-0.1-0.1-0.1-0.3-0.1-0.2-0.1-0.4-0.1-0.1-0.1-0.3-0.1-0.2-0.1-0.4c-0.2-0.8-0.5-1.1-1.2-1.1h-0.7v2.5h-0.7zm0.7 2.7h0.8c0.8 0 1.3-0.4 1.3-1.1 0-0.7-0.5-1.1-1.3-1.1q-0.1 0-0.2 0-0.1 0-0.2 0-0.1 0-0.2 0-0.1 0.1-0.2 0.1z"/>
			<path id="Layer" fill-rule="evenodd" class="s8" d="m153.9 40.9q0.2 0 0.4 0 0.1 0 0.3-0.1 0.2 0 0.4 0 0.2 0 0.4 0 0.2 0 0.4 0 0.2 0 0.5 0.1 0.2 0.1 0.4 0.2 0.2 0.1 0.4 0.2 0.1 0.1 0.2 0.2 0.1 0.2 0.1 0.3 0.1 0.2 0.1 0.3 0 0.2 0 0.3 0 0.3-0.1 0.5 0 0.3-0.2 0.5-0.1 0.2-0.3 0.3-0.2 0.1-0.5 0.2 0.2 0.1 0.3 0.2 0.2 0.1 0.3 0.3 0.1 0.2 0.2 0.3 0.1 0.2 0.1 0.4 0 0.2 0.1 0.4 0 0.2 0.1 0.4 0 0.2 0.1 0.4 0.1 0.2 0.1 0.4h-0.7q-0.1-0.1-0.1-0.3-0.1-0.2-0.1-0.4-0.1-0.1-0.1-0.3-0.1-0.2-0.1-0.4c-0.2-0.8-0.5-1.1-1.2-1.1h-0.7v2.5h-0.7zm0.7 2.7h0.8c0.8 0 1.3-0.4 1.3-1.1 0-0.7-0.5-1.1-1.3-1.1q-0.1 0-0.2 0-0.1 0-0.2 0-0.1 0-0.2 0-0.1 0.1-0.2 0.1z"/>
			<path id="Layer" class="s8" d="m161.3 46.8v-2.5l-1.9-3.4h0.9l0.8 1.6q0.3 0.6 0.6 1.2 0.2-0.6 0.6-1.2l0.8-1.6h0.9l-2 3.3v2.6z"/>
		</g>
	</g>
</svg>