<?xml version="1.0" encoding="UTF-8"?>
<svg version="1.1" viewBox="0 0 1600 1066" width="1280" height="1280" xmlns="http://www.w3.org/2000/svg">
<path transform="translate(0)" d="m0 0h1600v1066h-1600z" fill="#28261F"/>
<path transform="translate(811,230)" d="m0 0h22l6 2v2l9 1 6 3h12l9-8h9l2 4 9 3v2l4 1 3 7 2 5 3 2 10 1 9 7 9 14 5 9 5 3 1 4 2 1 2 5 2 2h8l3-1 1 8h2l1 10 1 1v5l-1 3 2 13 8 6 6 2 3 10 4 2 14 8 4 4v7h-2l-1 3v7l6 8v10l6 5 7 3h6l4-4 1-2h8l7 4 4 6-2 7h2l7 8 6 6 1 8 1 1 1 11h7l3 5 2 12 7 8 1 2-1 9-2 9-4 7-2 5-3 16 4 2v7l-5 8h-2l-2 10-1 6-12 12-2 5h-2l-1 4-7 12h-2l-3 10-10 19-3 7h-2v4h-2l-1 5-3 6-6 10-5 13-4 6-3 7-4 2-7 14-3 2-1-3 2-8-7-2-3 27-1 1h-16l-16-2-2-4 1-8 3-7h2l1-4 5-12 3-3 6-11 1-6-3 1-10 16-8 8-10 13-5 4-9 11-5-1-2-2v-7l2-4v-5l-5-2-4-4-1-2h-2v8h2l1 4-4 4-1 3-3 3-1 2v10l-2 5h-2l-2-6 1-7v-3l-4-10-3-4-4-13-5-1-2-5h-2v-7l6 1v2h5l-2-3v-3l5 2 1 1 3-3 2 1 1-4 8 4 6 8 4 5 2 3 3 1 1-5 1-8-1-7-1-4 1-2h2l2-10v-7l-1-6-1-14-4-4 1-7-2-7-1-3 1-9-1-6 1-10-1-5 1-8-3 1-2 3-3 9-1 1-2 13h-3v3l-2 1-1 5h-3l-1-7-4-1-3-9 1-4-4-3h-10l-3-1v-2l-10-3-4-3-5-2-5-7-8-1-1 7-8 1-2 6-2 3-6 2-3 2-3 5-6 1-5-2v-2l-8-2-3-5v-2h-2v-2l-7-2-3-5-9 1-4 1-2 4-5 4-1 2-5 3-1 2h-2v2l9 1 5 2 1-3h3v2h2l1 6-5-1-1 3h-3v2l-6 1 1 4-2 3v4l-2 2-9-3-6-4-2-4-5-5-10-4-1-1h-7l-2 1 10 13 2 5h2l7 8 3 2 3 5-1 6 4 4-2 3-7-1-1-2-2 1-5-2h-2l-3-7-1-4-3-1-6-6-7-1 1 8 3 5v5l3 1-1 8-2 6 2 5v7l-1 2h-2v2l-4 1-2-1v-2h-3l-1-6-3-1-3-5v-2l-4-2-9-6-7-5-5-1-2 3-4 2-5 2v2h-2v-3l-2-1 1-4 6-4 1-10-14-14h-11l-3 3-1 3-4 3-1 6-1 2h2v2l-4 2 1 6 10 1 4 3 1 4h-2l1 2 9-5 2 1-2 6 7 2 1 6-3 2 7 1v2l-4 4-2 4-6 4-1 2h8l-1 5-7 2 1 2 6-2 4 4v3l3 1 2 3h-2l-1 4-11 5h-6l-1-2h-5v-3-3l-12-2-1-2-4 1-4-3v-2h-5l-3-5-1-4-4-3-4-7-7-11-3-8-2-6-1-8-2-5-1-10-1-2-1-16-4-25-2-12v-10l1-2v-9l-1-5 4-8 6 4-3 5 1 6 6 6 4-5h2l4 4 3-7-1-10-2-8-6-3-8 2-2-4h-8l-4-7-6-2v-2l-7-1-8-7-11-8-4-10-3-3-3-1-3-7-6 1-9 1 3-2 5-4h4v-3h-2v-2l-5-2-5 1 5-4 4-7 1-8v-11l-3-9 5-4 2-3v-5l-6-2v-2l-6-2-15-8 3-1 9 1 6-3 4-10 1-10 4-4 15-4h2l1-3 9-6 3-9 1-9 4-3h2l3-9 7-8 5-6 6-5h3v-2l10-4h2v-2l4-3 4-9 4-5 5-6h7l5 3h9l5-2 1-8 4-2v2l5-1 2-4 5-2v-2l6-2 2-4 4-1v-2l16-7 26-2 8-2h8l11 4h20l7-1 20-1 10-3h16z" fill="#5E6E0D"/>
<path transform="translate(701,696)" d="m0 0 9 1 3-1 7 3 9 6 1 3 7 2-1 7 3 3h12l3-2 10 4 6 2 3 4h5l2-5-4-4-3-1-2-4 6 1 5 3 4 1v2l9-2 2-1 4 2 1 5 9 1 5 4v2h2l3 3 4 1 3 5v2l5 1 1 4h2v2l7 2 4-1 1-6-3-1-2-4-2-2 6-9 3-1 2 7 7 3 2 2 2 5 4 4 12-2 26-13 10-10h3v-2l4-2 6-8 3-2 4 1 9 4 10 3 26 1 3-2 1-3 7-4 10 3 17 4 15 5 12 6 14 3 10 2 7-1 7 1 13-3 10-2 9-4 13-4 10-1 9 2 4 2-2 5-7 3-32 5-14 2-4 2-12 1-10-1-12-2-7-2-2 4-6 1-11-1-14-1h-25l-17 1h-15l-4 1-11-1h-9l-8 12-2 1 2 3-5 5-2 5-1 7-2 7-1 8 1 2-1 5v9l-3 4-5 1-5 5-1 2h-2l-2 4-7 9-3 3-8 1-2 6-6 1-3-6-5-4-2-2v12l-2 2-7 1-1 2-3-4-1-4-5 3h-2l-2 5-1 3-1 6-3 1-1 5 11 2v-2l10-6 9-1 2 1v2h2l1 5-2-1v-2l-10 1-6 4h-2v3l-6 2-1 3-7 3v9l-3 8-7 10-4 4-3 6v5l13-2 3-2h4v-2h4l2-4 4-5 6-8 9-2 9 2 12-2 1-2 5-1 14 1 8 3 5 2 3 6 2 14 3 3 5 3 2 3 5 2 10 2 9 2 15 4 3 2 17 4v2l9 2 7 3 11 6 5 5 2 6 3 6v15l-5 16-2 7-1 4-4 4h-11l-7-3-2-2 1-5 3-5-1-3-4-1-3-2v-2l-7-2-8-4-1-2-9-3-16-8-3-3v-2l-6-3v-2l-4-2-3-5-4-4-3-6-2-1v-2l-4-1-2-4-4-1v-2l-5-1-29 5-2 1h-7l-12-6-3-3-13 1h-12l-4 4h-2l-2 4-13 8-7 4h-2v2l-5 3-4 8-5 15-2 9-1 15-1 9-1 31v7l2 1 9-2 4 2 4 5v4l2 1 1 4h-447l1-3 5-4 5-5 6-5 1-2h2v-3l5-4 4-6 1-4-1-6 7-2 14-10 6-2v-2l5-3 4-4h2v-8l7-2 1-2 4-1 19-8 13-7 11-6 10-5 7-3 22-6 12-5 5-4 32-2 8-1 3-3h15l9 1 4 2h7v-2h2v-2l22-3 4-4 4-8 3-1 11 3h8l2-1h9l12 11 8 5 7 1h18l11 2 6 1h2l2-13 5-12 4-16 2-5 3-16 3-26v-16l-2-1-5 1-2-1 2-6 5-8 4-7v-38l-1-15-7-1-13-4-5-2h-5l-8 6h-3v2l-4 2h-3v2l-8 2v2l-12 5-7 4h-3v2l-11 6-20 12-6 4-7 4h-2v2h-3v2l-6 3-5 2v2l-8 7h-2l-2 4-13 12-8 6-3 3-11 7-9 5-5 4-11 6-6 5h-2v2l-9 5-8 5-11 8-7 4h-2l-1 3h-3l-1 5-2-4 1-5 5-5 4-3h2v-2l4-1 2-5 12-7 4-3 3-1 2-2h2l4-2 1-5 8-7 7-5 5-2 2-6 4-1 2-6 4-4h2l2-4 6-5 4-5 4-4 8-10 7-8 8-10 7-9 9-10 7-8 10-11 7-11-1-8h2v-2l10-3 3-2v-3l-2-1 1-5h2l2-3 6 2 6-5 6-1 1-10 3-1z" fill="#1A1B08"/>
<path transform="translate(812,233)" d="m0 0 14 1 13 4 1 3h-2v2l-9 7-1 3-2 1h-17l-11-9-1-2-5 1-4 5-8 4h-3l1 3 11 5 6 2v3l8-1 4-1h8l-1 14-2 8 4-1 2-10 3-4h2v-2h2l-1-4 4-1 8-5 14-4 3-2 5 1 3 2 10 1 5 4h5l2-3h2v-2h2l2-5 7-3 8 7 6 4 8 1 8 6 6 10 7 12 2 8 4 1 2 4v6l1 2 7-1 5-1 4 4v6l1 3-7 13 1 4 10 9-3 3 7 5h3l3 9 1 12-3 10-2 2-3 8-2 2-20 1-4 4v6l1 3h2l1 4 2-1 1 4-4 4-5-11-3-2-3 5-7-1-3-3 1-7-2-2-2-5-4-2h-2l2 5v7l-7 1-20 1-12 4-3 4-14-3-2 5-8 6-8 4-2 2h-12l-11 2-14 7-5 9-7-1-3-1h-13l-14 5-8 6-4 6-10-1v-2h-33l-6 3-17-1-1-1-9-1v2l-16-1-4-2 2-1h27l31-3 13-2 17-6 31-3 17-4 1-2-8-2-5-9-7-7-5 1-2 9-6 4-12 4-11-1-4 2-5-1h-3l-9 2h-3l-1-7-9-9-2-9v-5l4-2 9 1 12 4 3 2v2l6-2 3-3 17-1h13l8 2v3l4-1 4 4 6-2 3 1 1-3 3-2h14l-6-3-20-5-9-2-14-1-12-3-20-2h-10l-8 3-4-1-16-2-4-4-2-4-5-3-10-4-8-4-22-2-6-1-15-5h-3l2 4 13 4 6 5 2 4 3 3-1 7-9 1-2-2v-3h-7l-5-2-3-3-4-2-5-1-2-5-2-1v-2l-5-1-3 1-4-6-9-7 1-14-1-13-1-5-1-2h-3l1 32-12 6-5-3h-3v-2h-2l-2-9v-8l2-14 5-12 6-3 3-6 3-1v-2l6-4 6-3 7-2 6-7 9-6h10l8 2 2-4 9-4 4-16 8-1 5-3 4-1 2-3h2v-3h2v-2l6-4 8-2 5-3 13-2 22-3 5 2 2 2v8l4-1 3-4 16-2h12l6-2h13l8 1-1-4 11-3z" fill="#AFC204"/>
<path transform="translate(514,449)" d="m0 0 2 1-3 3 3-1 4 3v2h2v3l-5 2-4 3 12-2 3 6v2l4 1 4 4 4 10 13 9 4 4 7 2v2l6 1 4 6v2l6-1 4 4 9-2 6 4 3 12v6l-4 8-4-3v-2l-5 5-2 1v-2l-4-2-3-5 1-5 2-4-5-3-3 7 1 5v9l-1 2v10l2 12 4 25 1 16 1 2 2 14 1 1 2 13 3 5 3 7 7 11 3 5 3 2 3 8 5 1 4 4 5-1v3h9l3 2v3l2 1 1 1 3 1v2l8-2 9-3 1-5-3-3-1-3-3-2v-2l-7 3v-3l7-3 1-4h-8l2-4 6-4 1-4 4-2v-2h-7l-3-2 5-1v-6h-6l-2-3 2-5-10 5-2-1 2-3-2-4-7-1-5-2-2-6 5-2v-2h-2l1-9 5-2 1-5 3-2h11l7 6 7 8 1 4-1 7-6 5v4 3h2v-2l5-3 2-2h2l2-3 6 2 10 7 9 6 4 7 2 1 1 6h3v2h6v-2h2v-10l-2-5 3-9v-4l-2-1-3-9-2-7 1-2h7l6 5 4 5 3 5v4l3-1 5 2h3l1 2h5l1-2-4-5 1-5-3-5-8-7-1-3h-2l-4-6-7-9-2-4 3-1h7l5 3 6 2 3 3v2l3 1 3 5 5 3 9 2v-2h2l-2-5 2-1v-4l6-1v-2h3l1-4 4 1-1-3 1-2h-2v-2l-3 1-1 2-11-1-1-2h-2l1-4 4-3h3l2-4 5-4 1-2 8-3h5l3 4v2l7 2v2h2l3 5v2l6 1 2 1v2l8 1 4-2 2-4 4-3h5l2-4 2-5 5-1h3l1-7 4-1 5 2 4 6 5 2 6 4 8 3v2h13l5 4-1 5 3 8 3 1 1 7h3v-5l3-1v-3h3l1-13 3-5 2-6 2-3h3v10l1 8-1 6 1 8-1 8 2 4 1 7-2 4 4 2 1 6 1 10 1 13-3 10h-2v5l1 5 1 8-3 8-5-1-4-7-4-4-3-5-7-3-1 3h-3l-3 3-3-3-2-1 2 6-3 1-2-1v-2l-3 1-2-1-1 6h2l3 5 5 1 3 11 3 5 4 9 2 4-1 1-1 8 1 5 2-1 1-5v-9l3-5 2-1 1-4 3-2v-4h-2l-1-6 3-3 2 4 8 5 1 6-2 3v7l3 2h3l6-8h2l2-4 5-5 12-14 7-8 7-12 4-1v6l-8 14h-2l-3 9-3 7h-2l-3 12v5l5 2 12 1h16l2-16 1-9 1-2h6l2 3-2 8h2l8-15 3-1-2 6-5 9h-2l-2 4h-2v5l-4 5h-2l-1 4-3 2-26-1-13-4-7-4-6 1-2 4-4 5-4 1v2l-5 3-5 5h-2l-1 3-26 13-12 2-6-7-2-4-8-4-1-5h-3l-5 8 4 6 2 1v6l-6 2-6-3v-2h-2l-1-4-5-1-4-6-6-3v-2h-2l-5-5-9-2-1-5-5-1-3 2h-7v-2l-6-1-9-4 2 1v3l4 1 4 5-3 5h-5l-3-4-9-3-8-3-2 2h-13l-3-4 1-5 1-2-5-1-7-6-8-5-5-1-6 1-5-2v3l-2 1-2 10-7 3-6 4-5-2-3 3-2 4 3 1-1 4-8 4-9 1-8-5v-2l-4-2-6-5v-2h-2v-2l-4-2-3-3v-2l-4-2-5-5v-2h-2l-15-20-8-13-8-15-5-13-4-13-3-21-2-16-3-26-2-15-5-8-8-11v-2l-3-1-1-4-4-2-10-11-7-9-2-4-14-11-7-8v-3h-2l-2-4v-15z" fill="#485313"/>
<path transform="translate(964,334)" d="m0 0 3 2 2 8 5 4 3 2 1 10 9 1 5 3 6 2 4 3 1 5 2 1-2 6v8l5 8-1 8 4 5 8 5-2 4-1 10-2 3-7 4-4 3 1 3 16-4 6-3h6l2-3h2l1-3 4 1 2 7h8l4-3h3l3 5 4 4 2 6v11l-5 14-3 11 4-2 4-6 6-5 3-5 2 1 2 9 8 10-1 6-1 9-5 10-4 12 1 9 2 3v5l-4 6h-2l-2 6-1 11-6 4-6 7-8 12-3 7-4 4-4 8-4 10-5 5-9 5-4 2-1 3h-2v2l-6 1-5-15v-2l-4-2-1-3v-7l1-7-1-7-1-4-2 2-2 12-6 22-3 6-4 1v-12l-2-4-5-2-3-2v-2h-5l-5-1-2 1-1 3h-10l-1-10v-8l1-3-2-5 3-3v-6l1-5v-6h3l1-5 3 2 1 3h4v2l4-2 2-11v-12l-3-9h-2l-1-3 1-10 2-5 1-4 1-5 2-1 2-5 3-1v-7l4-9 4-2 3-9 10-13 2-4-4 2-11 2-5 1-8 1-18 5-6 4-2 4v16l-1 3v8l2 2 5 2-3 10-4 12v14l1 8h-5l-3-2-12-1-11-8-10-3h-7l-8 4-5 5 8-2h7v2l3 1 1 6 1 3-3 3-6 1-7-1-3-1v-2l-5 1-3-1-7 2-17-5-15-3-10-1h-4v-2l-12 2-7-1 2-13 4-6 6-3h3v-2l-3-1 4-1 7 2 14 2 2 1v-3l-5-2-5-3 1-4 2-5-1-1 1-10 1-3 6 1 2 1v-6l3-3h5l2-5 5-1 2-7v-9l4-5 7-4 3-4 4 1 2-10 5-3 2-13 5-6 5-2 12-6 9-4h-18l-10 2-7 2v2h-2l-2 4-9-3-5 1-9 8-9 5-5 4-6-1h-13l-8 3-3-1 12-5 15-1h5l5-4 10-5 5-7 9 1 5 1 3-4 12-4 20-1h7l-1-7-1-5 4-1 4 4 2 5 1 4-1 4v2l9 2 2-6 5 3 5 10 2-5-2 1-1-6h-2l-2-3v-6l5-5 20-1 3-5 2-5 3-9 1-7-2-9-2-6-5-2-5-5 3-2-8-7z" fill="#849C03"/>
<path transform="translate(811,230)" d="m0 0h22l6 2v2l9 1 6 3h12l9-8h9l2 4 9 3v2l4 1 3 7 2 5 3 2 10 1 9 7 9 14 5 9 5 3 1 4 2 1 2 5 2 2h8l3-1 2 8 1 14-6 11-2 1 2-5 4-9-2-10-5-1-5 2-5-1-1-4-1-8-5-1-3-10-12-20-7-5-10-2-8-7-5-3-6 3-2 4h-2v2h-2l-2 4h-5l-5-4-10-1-5-3-5 1-8 3-11 4-6 4-1 3h-2v2l-4 4-2 10-5 1 1-8 2-14-18 3-2-1v-3l-8-2-10-5v-3l12-6 4-5 5 1 5 5 6 5h19l1-4 7-6h2v-2h2l-3-3-11-3-14-1-17 2-6 1 1 4h-21l-6 2h-16l-12 2-3 4h-4l-1-8-2-2-6-1-33 5-7 4-7 2-5 2v2h-2v3l-4 4-8 3-1 1h-8l-2 14-5 5-7 3-1 2-8-1h-10l-11 8-4 5-7 2-9 5-3 1v2l-4 4-3 5-5 1-1 5-4 9v10l-1 4v9l1 6 9 3 2 1 10-5v-11l-1-21 4-1 3 4v9l1 14-1 8 11 9 1 4 5-2 3 2v2l3 1 2 5h5l6 4v2l12 2 2 4h9v-9l-3-1-3-5-7-4-10-3-2-5 4-1 9 4 7 2 18 1 10 2 12 6 7 3 4 4 2 5 14 1 5 2 6-1 5-2h10l20 2 12 3 21 2 9 3 15 4 5 3v1h-15l-4 4-7 1-3 1-3-4h-4v-3h-6l-3-1h-16l-13 1-4 4h-5v-2l-5-2-15-4-7 1 1 11 4 7h2v2l3 1 2 6v2l9-1 4-2 3 2 6-1 3-1 10 1 15-6 1-1 2-9 2-2 5 1 4 5 4 4 3 6 8 3-1 3-17 4-31 3-10 4-7 2-22 3-25 2h-25l11 2 8 1v-2h9l2 1h7l9 1 6-3h12l21 1v1l-22 1-1 3 4 2v6h2l2 5-1 6-7 4-10 1-4-2-4-4-10-2-11-4-7-3-2-2-7-3-9-7-13-5 2 7 8 9 15 7 27 9 7 5 11 1 3 2h-23l-11-3-9-4-9-3-8-7-5-3-9-7-4-7-2-4-4 5-1 15-3 1v3h-5v-2l-9-2-6-5-3-7-1-8-2-2v-4h-2v-3h-2l-2-6h2v-2l-6 1v-2l-5-2v-2l-3-1-3-5-7-3h-8l-8-3 4 7 14 20 1 3 3 3 3 5 3 3 2 6 4 2 4 9 2 6v8l2 8-10-2-13-1-1-2h2l-2-10h-4l-3 10-13-2-7-4-12-9-4-10-3-3-3-1-3-7-6 1-9 1 3-2 5-4h4v-3h-2v-2l-5-2-5 1 5-4 4-7 1-8v-11l-3-9 5-4 2-3v-5l-6-2v-2l-6-2-15-8 3-1 9 1 6-3 4-10 1-10 4-4 15-4h2l1-3 9-6 3-9 1-9 4-3h2l3-9 7-8 5-6 6-5h3v-2l10-4h2v-2l4-3 4-9 4-5 5-6h7l5 3h9l5-2 1-8 4-2v2l5-1 2-4 5-2v-2l6-2 2-4 4-1v-2l16-7 26-2 8-2h8l11 4h20l7-1 20-1 10-3h16z" fill="#839B03"/>
<path transform="translate(965,307)" d="m0 0h1l1 10 1 1v5l-1 3 2 13 8 6 6 2 3 10 4 2 14 8 4 4v7h-2l-1 3v7l6 8v10l6 5 7 3h6l4-4 1-2h8l7 4 4 6-2 7h2l7 8 6 6 1 8 1 1 1 11h7l3 5 2 12 7 8 1 2-1 9-2 9-4 7-2 5-3 16 4 2v7l-5 8h-2l-2 10-1 6-12 12-2 5h-2l-1 4-7 12h-2l-3 10-10 19-3 7h-2v4h-2l-1 5-3 6-6 10-5 13-4 6-3 7-4 2-7 14-3 2-1-3 2-8-7-2-3 27-1 1h-16l-16-2-2-4 1-8 3-7h2l1-4 5-12 3-3 6-11 1-6-3 1-10 16-8 8-10 13-5 4-9 11-5-1-2-2v-7l2-4v-5l-5-2-4-4-1-2h-2v8h2l1 4-4 4-1 3-3 3-1 2v10l-2 5h-2l-2-6 1-7v-3l-4-10-3-4-4-13-5-1-2-5h-2v-7l6 1v2h5l-2-3v-3l5 2 1 1 3-3 2 1 1-4 8 4 6 8 4 5 2 3 3 1 1-5 1-8-1-7-1-4 1-2h2l2-10v-7l-1-6-1-14-4-4 1-7-2-7-1-3 1-9-1-6 1-10-1-5 1-8-3 1-2 3-3 9-1 1-2 13h-3v3l-2 1-1 5h-3l-1-7-4-1-3-9 1-4-4-3h-10l-3-1v-2l-10-3-4-3-5-2-5-7-8-1-1 7-8 1-2 6-2 3-6 2-3 2-3 5-6 1-5-2v-2l-8-2-3-5v-2h-2v-2l-7-2-3-5-9 1-4 1-2 4-5 4-1 2-5 3-1 2h-2v2l9 1 5 2 1-3h3v2h2l1 6-5-1-1 3h-3v2l-6 1 1 4-2 3v4l-2 2-9-3-6-4-2-4-5-5-10-4-1-1h-7l-2 1 10 13 2 5h2l7 8 3 2 3 5-1 6 4 4-2 3-7-1-1-2-2 1-5-2h-2l-3-7-1-4-3-1-6-6-7-1 1 8 3 5v5l3 1-1 8-2 6 2 5v7l-1 2h-2v2l-4 1-2-1v-2h-3l-1-6-3-1-3-5v-2l-4-2-9-6-7-5-5-1-2 3-4 2-5 2v2h-2v-3l-2-1 1-4 6-4 1-10-14-14h-11l-3 3-1 3-4 3-1 6-1 2h2v2l-4 2 1 6 10 1 4 3 1 4h-2l1 2 9-5 2 1-2 6 7 2 1 6-3 2 7 1v2l-4 4-2 4-6 4-1 2h8l-1 5-7 2 1 2 6-2 4 4v3l3 1 2 3h-2l-1 4-11 5h-6l-1-2h-5v-3-3l-12-2-1-2-4 1-4-3v-2h-5l-3-5-1-4-4-3-4-7-7-11-3-8-2-6 1-4 3 10h2l3 5 2-6 3-1v2h3v2l3 1-3 2h-3l1 4 3-1v-3l9-6h3l-3 4h-2l-2 5-1 4 2 3v6l1 2 4-2 2-6 4-3 1-2 4-1 1-1-3-1v-2h-2l2-4 1-3v-5l-8-1 4-7-4-1-2-2h2v-2h-7l-5 3-2-1 6-11 6 4h3 2l4-8 4-2 1-2h2l2-5 2-1 2-12 2-2h6l12 5v4l6-1 2-2 1 5-4 7 5 2 1 1 7 1-4-8 2-2 11-1 2-5 10-7 5 1 3 6 3 1 2 3 3 1-1-7-1-4 11-1 6 1 1-1h10l1 1h5v-4l6-2v-2l5-2 1-2h3v-2h2l1-3 5-6 9-3v-3l4 1 1 2 10-2 4-2 2-5 2 1 1 7 5 1 1 5 2 1v2l6 1 1-4 2-1 5 2h3l-2-5v-4l10 1 10-2h13l14 2 7-2 3 1h3l2 2h6l3 1 6-2 1-2-1-5-2-1h2l-3-3v-2l-12 2-4 1 3-5 8-5 3-1h7l12 4 9 7 12 1 3 2 5 1-2-8v-14l7-20v-2l-5-2-2-2v-8l1-3v-16l4-6 8-4 19-5h7l5-2 12-2-2 6-9 11-4 9-5 5-2 8-1 5-3 2-2 6-2 1v6l-3 5v7l-1 5 4 4 2 7v12l-2 11-5 2v-2l-4 1-3-5-2 4h-3l1 10-1 1v7l-2 2-1 2 2 4-1 7v13l4-1 6 1 1-4 6-1 6 2v2l6 2 3 2 2 4v11l3-1 5-15 4-15 1-9 3-3 2 4v6l1 6-1 3v7l2 4 3 3 3 9 1 1v5l6-1v-2l8-7 9-5h2l2-5 5-13 5-7h2l1-4 5-9 7-10 6-6 3-1 1-11 3-6h2l2-5 1-1-1-7-2-4 1-9 6-16 2-3 1-9 1-6-8-10-2-9-2 1-3 5-5 4-5 7h-3l1-6 5-17 1-2v-11l-3-8-5-5v-2l-8 4-7-1-2-7h-4l-1 2h-2l-2 4h-6l-9 4-13 3-2-4 9-7 3-1 2-8 1-5 1-3-9-6-3-4 1-8-5-8v-8l3-6-3-1-1-5-4-3-7-2-3-2-9-2-2-10-6-4-3-4-2-7-3 3-4-1-1-4 4-4 4-8z" fill="#767D12"/>
<path transform="translate(589,953)" d="m0 0h11l2 2-4 1 1 3 5 2 9 1 5-2 2-2 4 2 16 1 4 2 1 2-1 6 9 2-8-4 4-4 8-1 32 2 7 3-2 4-8 4-6 4-4 1-12-5h-2l8 5 6 3 6-2 5-4 6-1 10-1 4-4v5l-9 7-4 9-3 2-3 1h-10l-16-8-5-3-7-8-5 1-3 3h-2l1 6 4 5 5 5 4 6 6 4 3 5 4 3 9 5 6 8 5 4 4 8 2 5 1 3 4 2-1 3-7 1-2 1-2 9-1 1h-234l5-5 12-9 5-5 13-12 13-8 11-7 5-5 2-3h2v-2l6-4 7-7h2l2-4 11-11 14-9 12-4 6-7h2l2-6z" fill="#101802"/>
<path transform="translate(797,548)" d="m0 0 2 1 1 7 5 1 1 5 2 1v2l6 1 1-4 2-1 5 2h3l-2-5v-4l10 1 10-2h13l20 3 3 2 4 2 10 2 7 1 3 2 4-1 9-7h4l-1 13h2l1 9h-2l-1 10 2 1 1 7 1 13 1 4h2l2 5v7l-1 3v25l-1 8 2 11v6l3 7h2l2-5 1-1-1-5v-5h-2v-3h-2l-2-9v-16l2-12 3-1 4 2 2-3h3l3 7v11l3 4v12l5 1-1 7h-2v7l4-4 4-6 5-10 1-9 1-5 4-2v-2h3l3 8 4 2-1 12-3 4-2 5-7 8-1 5-4 6-8 16-1 11 4 1-9-1-2-4 1-8 3-7h2l1-4 5-12 3-3 6-11 1-6-3 1-10 16-8 8-10 13-5 4-9 11-5-1-2-2v-7l2-4v-5l-5-2-4-4-1-2h-2v8h2l1 4-4 4-1 3-3 3-1 2v10l-2 5h-2l-2-6 1-7v-3l-4-10-3-4-4-13-5-1-2-5h-2v-7l6 1v2h5l-2-3v-3l5 2 1 1 3-3 2 1 1-4 8 4 6 8 4 5 2 3 3 1 1-5 1-8-1-7-1-4 1-2h2l2-10v-7l-1-6-1-14-4-4 1-7-2-7-1-3 1-9-1-6 1-10-1-5 1-8-3 1-2 3-3 9-1 1-2 13h-3v3l-2 1-1 5h-3l-1-7-4-1-3-9 1-4-4-3h-10l-3-1v-2l-10-3-4-3-5-2-5-7-8-1-1 7-8 1-2 6-2 3-6 2-3 2-3 5-6 1-5-2v-2l-8-2-3-5v-2h-2v-2l-7-2-3-5-9 1-4 1-2 4-5 4-1 2-5 3-1 2h-2v2l9 1 5 2 1-3h3v2h2l1 6-5-1-1 3h-3v2l-6 1 1 4-2 3v4l-2 2-9-3-6-4-2-4-5-5-10-4-1-1h-7l-2 1 10 13 2 5h2l7 8 3 2 3 5-1 6 4 4-2 3-7-1-1-2-2 1-5-2h-2l-3-7-1-4-3-1-6-6-7-1 1 8 3 5v5l3 1-1 8-2 6 2 5v7l-1 2h-2v2l-4 1-2-1v-2h-3l-1-6-3-1-3-5v-2l-4-2-9-6-7-5-5-1-2 3-4 2-5 2v2h-2v-3l-2-1 1-4 6-4 1-10-14-14h-11l-3 3-1 3-4 3-1 6-1 2h2v2l-4 2 1 6 10 1 4 3 1 4h-2l1 2 9-5 2 1-2 6 7 2 1 6-3 2 7 1v2l-4 4-2 4-6 4-1 2h8l-1 5-7 2 1 2 6-2 4 4v3l3 1 2 3h-2l-1 4-11 5h-6l-1-2h-5v-3-3l-12-2-1-2-4 1-4-3v-2h-5l-3-5-1-4-4-3-4-7-7-11-3-8-2-6 1-4 3 10h2l3 5 2-6 3-1v2h3v2l3 1-3 2h-3l1 4 3-1v-3l9-6h3l-3 4h-2l-2 5-1 4 2 3v6l1 2 4-2 2-6 4-3 1-2 4-1 1-1-3-1v-2h-2l2-4 1-3v-5l-8-1 4-7-4-1-2-2h2v-2h-7l-5 3-2-1 6-11 6 4h3 2l4-8 4-2 1-2h2l2-5 2-1 2-12 2-2h6l12 5v4l6-1 2-2 1 5-4 7 5 2 1 1 7 1-4-8 2-2 11-1 2-5 10-7 5 1 3 6 3 1 2 3 3 1-1-7-1-4 11-1 6 1 1-1h10l1 1h5v-4l6-2v-2l5-2 1-2h3v-2h2l1-3 5-6 9-3v-3l4 1 1 2 10-2 4-2z" fill="#57630E"/>
<path transform="translate(901,408)" d="m0 0h20l-2 2-9 4-5 3-7 3-6 3-3 4-2 13-4 3h-2l-1 7-1 3h-4l-4 5h-2l-1 2-5 3-1 2v10l-3 8-4-1-3 5-7 1-1 8-8-2v6l-1 7 1 3-4 7 5 2 5 3v3l-20-3-6-1 2 1v2l-9 4-3 5-2 12 2 1h6l6-1h4v2l10-1 13 3 16 4v1l-31-1-13-2h-4l-6-3-6 1-3-2 1-5 2-3 1-7h-6l-1-3h-2v-2l8-4 3-3h3v-5l-17-2-3-2h-11l-2 1h-17l-6-2-12-1-10-5-9-5-6-1v-2l-11-1-9-6-30-10-11-6-8-9-1-7 6 1 10 5 9 7 5 2 2 2 9 3 8 3 12 3 2 4 5 1 9-1 6-3 1-6-1-5h-2l-1-6-4-2 2-4h22l10 1 6-8 8-5 12-4h13l6 2h4l4-8 4-3 13-4h13l6 1 8-6 10-6 6-6 5 1 8 2 2-3h2v-2l9-4z" fill="#668103"/>
<path transform="translate(586,941)" d="m0 0h8l19 4v1l-5 1-4 4-12 1-4-3-2 4-3 8-5 5-5 6-12 4-15 10-23 23-4 1v2h-2l-2 4-3 1-2 4-11 7-10 6-10 9-7 6-4 4-13 10-4 3h-86v-3l8-7h2v-2l5-4 2-3h2l2-4 7-8 3-7 5-6 5-3h2v-2l8-6 5-1v-2l5-5 8-6 12-8h3l1-2 16-8 7-3 13-8 12-6 24-7 15-6 3-2 5-1 31-2z" fill="#090F01"/>
<path transform="translate(607,510)" d="m0 0 4 1 8 7 3 7v4h2l3 5h2l2-4-1-9 2-6 3-1 3 1 4 10-3 4 1 3 6 2h11l2 3 8-1 5-2v2h2l1 7h5v5l-5 2h4l3 1 1-3h3l7 1 5-1 2 2v3l4-1 5 2 7-1h3 4v2l-5 2 3 1 1-2 1 3 3-3h4l2 5v5h2l2-4 7-10h2l1-6h2v-2l4-1 4 1 9-3 13-1 9 2 7-5h3l-1 7-3 4h-8v-2l-8 1-13 1-2 4-5 3-6 1 3 10-3 7-3 3h-2v2l-13 3h-9l-12 3-2-1 3 7-1 4-4-1-1-3-4-1-3-6-5 1-9 6-2 4-11 2-1 2 3 5v2h-7l-6-4 2-5 1-4h-2l-3 1-3-1v-4l-10-3-2-1h-6l-1 1-2 12-3 1-2 5h-2l-2 4h-3l-3 9-5-1h-3l-4-3-5 10 7-3 6 1 1 4 3 1-1 4-2 2h5l2 2 1 7-4 5h2v2l4 1-2 1-1 2-3-1v4l-4 1-3 6-4 3-2-4v-5l-2-4 4-8 4-4-9 6h-2v3l-4 2-1-3 1-2 5-2-2-1v-2h-3v-2l-3 2-2 8-2-4-1-4h-2l-5-14-2-5-1-10-1-2-1-16-3-18v-17l3-4 4-2 1-2 6 2 1 5 3 1 2-7 5-10 3-5 3-7 4-3h2l-7-13z" fill="#668103"/>
<path transform="translate(701,696)" d="m0 0 9 1 3-1 7 3 9 6 1 3 7 2-1 7 3 3h12l3-2 10 4 6 2 3 4h5l2-5-4-4-3-1-2-4 6 1 5 3 4 1v2l9-2 2-1 4 2 1 5 9 1 5 4v2h2l3 3 4 1 3 5v2l5 1 1 4h2v2l7 2 4-1 1-6-3-1-2-4-2-2 6-9 3-1 2 7 7 3 2 2 2 5 4 4 12-2 20-10 5-2 8 2 3 4-2 12-3 7-3 14-2 12-5 16-2 10-3 2-15-5h-17l-1-6 1-4-4-6-1-13 3 1 4 9 5 10 6 1 9-2 2-1-1-7-3-11v-4l-5-3-6-4-2-6-5-2-2-4 4-2-20 4-6 2-11 1-6 2-10-1-3-1-9 3h-6l-5-1h-7l-8-2v-2l-8 1-19-9-9-2-7-3-3-4-1-5-4-2-1-2-4-1h-7l-6 1v3l-11 5-5 1-6-2-11-3v-2h-8l-1-4 11-6v-3l-2-1 1-5h2l2-3 6 2 6-5 6-1 1-10 3-1z" fill="#363418"/>
<path transform="translate(782,770)" d="m0 0h14l6 4v7l-2 9-1 17-1 6 1 10v13l-4 25-2 12-4 18v14l1 7 1 1v6l-3 3h-2l-1 7 1 2v6l-2 2v6h5l2-4 4-1 1-5h2l2 7-1 7-2 3h-2v2l-10 2-1 1v6l-3 5-1 4v8l1 3v11l-2 33v22l-2 10-2 7h-26l-1-6-6 3 1-5 6-3h2l2-5 2-7v-49l-1-15-1-14-4-6-4-3-1-4 3-3 5-1 1-2 6-1 1-6-2-5 1-5 2-5h2l-1-4 2-15 5-11 1-5v-14l1-18 1-8 1-5v-10l6-9 6-7v-2l-12 12-3-1v-15l3-8 5-10 6-3-5-2h-2l-1 2-3-11 2-8z" fill="#0E0B01"/>
<path transform="translate(575,975)" d="m0 0h9l11 1 11 5-1 5-7 4-5 2-8 4-3 3 1 10h2l4 7 2 10 1 14 3 21v5h-138v-2l8-5h2v-2l5-2v-2l8-8h2v-2l5-4h3l1-3 11-7 9-5 4-2 2-4h2v-2h2l2-4 5-2v-2l5-4h2l2-4h2l1-3h2v-2h2l1-3 9-7 6-4 10-5z" fill="#282620"/>
<path transform="translate(704,664)" d="m0 0h4l8 11 3 7 4-1h5l4-6 5 1 1 4-1 2h-2l3 6h8l9-1 7 4 2 2v-1h5v-5l-4-3v-2l-5-2-2-2 1-2 5 1 2 4 7 3 4 3v2h2v3l2 1-1 4 6 2 4 2 4 1v2l9 2 11 3 1-4 6 1 5 5 5 2 6-1 2 1v-2l4-1-3-2-1-3-2-2 5 1 8 6 7 8h4l2 6 1 6-1 3 1 5h2l3 3 13-2 4-1h7l7-6 2-3 5-2 4-1h3l-6 6h-2l-1 3-26 13-12 2-6-7-2-4-8-4-1-5h-3l-5 8 4 6 2 1v6l-6 2-6-3v-2h-2l-1-4-5-1-4-6-6-3v-2h-2l-5-5-9-2-1-5-5-1-3 2h-7v-2l-6-1-9-4 2 1v3l4 1 4 5-3 5h-5l-3-4-9-3-8-3-2 2h-13l-3-4 1-5 1-2-5-1-7-6-8-5-5-1-6 1-5-2v3l-2 1-2 10-7 3-6 4-5-2-3 3-2 4 3 1-1 4-8 4-9 1-8-5v-2l-4-2-6-5v-2h-2v-2l-4-2-3-3v-2l-4-2-5-5v-2h-2l-5-8 9 3 2 5h3v5l5 2 3 6v2l5 1v2l10 1 4-3v-1l-1-2 7-12 7-6 4-4h3l1-4 8-2v-2l7-3 8-4 4-1-2-7z" fill="#3C4318"/>
<path transform="translate(811,230)" d="m0 0h22l6 2v2l9 1 6 3h12l9-8h9l2 4 9 3v2l4 1 3 7 2 5 3 2 10 1 9 7 9 14 5 9 5 3 1 4 2 1 2 5 2 2h8l3-1 2 8 1 14-6 11-2 1 2-5 4-9-2-10-5-1-5 2-5-1-1-4-1-8-5-1-3-10-12-20-7-5-10-2-8-7-5-3-6 3-2 4h-2v2h-2l-2 4h-5l-5-4-10-1-5-3-5 1-8 3-11 4-6 4-1 3h-2v2l-4 4-2 10-5 1 1-8 2-14-18 3-2-1v-3l-8-2-10-5v-3l12-6 4-5 5 1 5 5 6 5h19l1-4 7-6h2v-2h2l-3-3-11-3-14-1-17 2-6 1 1 4h-21l-6 2h-16l-12 2-3 4h-4l-1-8-2-2-6-1-33 5-7 4-7 2-5 2v2h-2v3l-4 4-8 3-1 1h-8l-2 14-5 5-7 3-1 2-8-1h-10l-11 8-4 5-7 2-9 5-3 1v2l-4 4-3 5-5 1-1 5-4 9h-2l-2 12-1 2h-2l-2 5-8 5-2 8-6 5-1 3 5 1 3 4-1 6-3 1-7-5-6-11-2-1-2 9-2 2 1-14 4-4 15-4h2l1-3 9-6 3-9 1-9 4-3h2l3-9 7-8 5-6 6-5h3v-2l10-4h2v-2l4-3 4-9 4-5 5-6h7l5 3h9l5-2 1-8 4-2v2l5-1 2-4 5-2v-2l6-2 2-4 4-1v-2l16-7 26-2 8-2h8l11 4h20l7-1 20-1 10-3h16z" fill="#839A03"/>
<path transform="translate(849,585)" d="m0 0 3 1v2h2v3l8-4 6 1 5 2 5 1 2 5 1 5 3 3 2 1 1 4 4 3v2l4 1v3h3v-2l3 1 2 6 1 4h2l9 14 1 6-1 2v5l-5 1-3-2v-2l-8-1h-2-2l-1 3h-4l-1 4h-7l-1-4h-2l-1 2 2 1h-2l-1 2-6-3h-5l-3 9-6-1v-2l-13-3-7-3-4-2-1-2 4-1 1-2-9-2v-2l-3-1 1-5 3 1-1-6-2-1h3l6 3v-6h-2v-3h-3l-1-3v-2l-2-1v-2l2-2-5-4-1-10v-4l4 2 2 2v-2-4l4-2 7 6 1-4v-2l1-4z" fill="#3D4417"/>
<path transform="translate(605,536)" d="m0 0 1 4-2 5v20l2 6 6 3 1 2 9 1 2 1v9l4 2-2 1 1 4-2 3h10l-2 1-2 5h-2l-2 4h-3l-3 9-5-1h-3l-4-3-5 10 7-3 6 1 1 4 3 1-1 4-2 2h5l2 2 1 7-4 5h2v2l4 1-2 1-1 2-3-1v4l-4 1-3 6-4 3-2-4v-5l-2-4 4-8 4-4-9 6h-2v3l-4 2-1-3 1-2 5-2-2-1v-2h-3v-2l-3 2-2 8-2-4-1-4h-2l-5-14-2-5-1-10-1-2-1-16-3-18v-17l3-4 4-2 1-2 6 2 1 5 3 1 2-7 5-10z" fill="#767C12"/>
<path transform="translate(571,443)" d="m0 0 8 4 3 5 4 4 4 8v2h2l3 6v3h2v4l3 1 4 10h3l4-4 8 1 5 9 3 5 10 5 3 9 5 2 6 5v2h5l3 3v3l7 1 5-2 5 1v2l9-3 2 2-2 10h5l4-4 3 5v2l5-3 3 2 1 3 12-4 9 2 1-2 1 5h6v-2l4-1 2 2v5l-2 4 2 1-7 10h-2l-2-10-5 2-3 2-1-2-3 1-2-2 4-2h3v-2l-5 1h-2l-9 1-5-2h-2l-2-4-7 1-5-1-4 2-7 1v-2l4-3 1-4h-5l-2-5 1-2-3-1-4 2-8 1-2-3h-11l-7-3-1-4 3-3-3-10h-6l-1 8 1 7-3 5-4-2-1-4h-2l-4-11-8-7-3-1 7 14v2l-6 4-4 10-3 5-3 6-3 7-4-1-1-5-5-2-2 5-3-1-2 4-1 10h-1l-2-12v-10l1-2v-9l-1-5 4-8 6 4-3 5 1 6 6 6 4-5h2l4 4 3-7-1-10-2-8-6-3-8 2-2-4h-8l-4-7-6-2v-2l-7-1-3-3 13 2 3 1 2-10 5-1 2 5v6l-1 1 19 2 3 1-2-9-1-9-4-10v-2l-5-2-2-8-3-1-3-5v-2l-3-1-5-9z" fill="#62760A"/>
<path transform="translate(995,455)" d="m0 0h2l-2 6-9 11-4 9-5 5-2 8-1 5-3 2-2 6-2 1v6l-3 5v7l-2 2-1 14-2 1-2 5-7 10-2 5h-2v-8l-6 3v8l-3 3-2 4-3-1-2-12 1-7-9-1-7-2v-2l-6-1-1 2v-2l-6-1-3-4-2 1h-9l-7 2 3-5 8-5 3-1h7l12 4 9 7 12 1 3 2 5 1-2-8v-14l7-20v-2l-5-2-2-2v-8l1-3v-16l4-6 8-4 19-5h7l5-2z" fill="#62760B"/>
<path transform="translate(701,696)" d="m0 0 9 1 3-1 7 3 3 2 2 5 5 7v4h2l3 13h2l2 8 2 2 9 1 2 1v4h8l7 3 11 3h3l1-3h2v-2l8-1 4 2 7 1 5 4 5-1h9l9-1v2h3v2l11 2 9-1v-2h2v-6h4v3l2 1-1 2 2 1-1 1-15 3-6 2-11 1-6 2-10-1-3-1-9 3h-6l-5-1h-7l-8-2v-2l-8 1-19-9-9-2-7-3-3-4-1-5-4-2-1-2-4-1h-7l-6 1v3l-11 5-5 1-6-2-11-3v-2h-8l-1-4 11-6v-3l-2-1 1-5h2l2-3 6 2 6-5 6-1 1-10 3-1z" fill="#292F0E"/>
<path transform="translate(637,458)" d="m0 0 2 1 4 10 5 4 6 5 7 4 1 3 4 2 16 5 4 2 20 4 18 4 14 7 12 1v2l9 1 10 2 1 1v5l-4 5-12 2h-9l-8 2-3-4-10-1-2-2-10 1-2 1h-6l-5-4-6 1-7-1-9-2-1-1h-12l-5-4-4-10-4-5-5-3v-2h-8l-7-3-4-2v-3l4-4 2-4 1-15z" fill="#485313"/>
<path transform="translate(975,619)" d="m0 0h2l1 2v7l-1 8v4h3l7-10 1-2 5 1-1 10-1 6 4 3 5-2 6-5 5-1 5 3-2 4-2 1-2 9h-3l-2 4-4 1-1 11-6 7 1 5 5-1 2-5-2-1 3-7h2l1-2 2-3 3-1 2-9 4-5 7-12 2-1-1 5-3 6-6 10-5 13-4 6-3 7-4 2-7 14-3 2-1-3 2-8-7-2-3 27-1 1h-16l-11-2v-11l8-16 5-9 2-5 4-2 2-4 3-7 1-1 2-12-4-1-2-2-1-7h-3v2l-4 1 2-5-1-3-4-1-5 3-4 4-4-2v-2l3-1 2-8 7-2 6-2 4 2z" fill="#61750B"/>
<path transform="translate(852,757)" d="m0 0h7l8 6 4 6 11 8v6l2 8-1 6-2 2h-9l-6-9-6-15-3-1-1 2v8l3 14v9l1 3 10-1 10 1 4 4-1 6-3 2-8-1-8-2-2-2-5 1 1 6 2 6-1 4-4-3-3-5-7-2v-2l-6-3v-2h-2v-4l3-2 8-1-1-2 1-7-4-6 1-7h-2l-4-5-8-6h-5v11l4 9 4 5v2h2l1 5-2 2-5-1-11-9-6-5-1-3-3-3v-6h-3l-1-4v-8l-3-2-5-1v-1l28-3 19-4v-2z" fill="#101802"/>
<path transform="translate(514,449)" d="m0 0 2 1-3 3 3-1 4 3v2h2v3l-5 2-4 3 12-2 3 6v2l4 1 4 4 4 10 13 9 4 4 7 2v2l6 1 4 6v2l6-1 4 4 9-2 6 4 3 12v6l-4 8-4-3v-2l-5 5-2 1v-2l-4-2-3-5 1-5 2-4-5-3-3 7 1 5v9l-1 2v10l2 12 4 25 1 16 1 2 2 14 1 1 2 13 3 5 3 9-2 1-6-13-5-17-3-21-2-16-3-26-2-15-5-8-8-11v-2l-3-1-1-4-4-2-10-11-7-9-2-4-14-11-7-8v-3h-2l-2-4v-15z" fill="#475214"/>
<path transform="translate(625,613)" d="m0 0 2 1-2 4h2v2l-4 2 1 6 10 1 4 3 1 4h-2l1 2 9-5 2 1-2 6 7 2 1 6-3 2 7 1v2l-4 4-2 4-6 4-1 2h8l-1 5-7 2 1 2 6-2 4 4v3l3 1 2 3h-2l-1 4-11 5h-6l-1-2h-5v-3-3l-12-2-1-2-4 1-4-3v-2h-5l-3-5-1-4-4-3-4-7-7-11-3-8-2-6 1-4 3 10h2l3 5 2-6 3-1v2h3v2l3 1-3 2h-3l1 4 3-1v-3l9-6h3l-3 4h-2l-2 5-1 4 2 3v6l1 2 4-2 2-6 4-3 1-2 4-1 1-1-3-1v-2h-2l2-4 1-3v-5l-8-1 3-4-1-9 1-2h2v-2h3z" fill="#585912"/>
<path transform="translate(812,232)" d="m0 0h15l13 3 4 2v4l3 1v-3l8 1 8 3 10-5 10 1 6 3 8 1 2 5 3 1 5 5 10 1 9 7 9 14 5 9 5 3 1 4 2 1 2 5 2 2h8l3-1 2 8 1 14-6 11-2 1 2-5 4-9-2-10-5-1-5 2-5-1-1-4-1-8-5-1-3-10-12-20-7-5-10-2-8-7-5-3-6 3-2 4h-2v2h-2l-2 4h-5l-5-4-10-1-5-3-5 1-8 3-11 4-6 4-1 3h-2v2l-4 4-2 10-5 1 1-8 2-14-18 3-2-1v-3l-8-2-10-5v-3l12-6 4-5 5 1 5 5 6 5h19l1-4 7-6h2v-2h2l-3-3-11-3-14-2z" fill="#839B03"/>
<path transform="translate(634,461)" d="m0 0 1 2-1 15-5 8h-2l1 3 10 4 8 1v2l5 2 6 7 4 10 3 2h12l3 2 12 1 3 1 5-1 3 2v2h8l9-2 4 1 7 2 5 1 2 3 8-2h10l4-1h7l2-4 1-1v-5l-19-4v-2h-12l-14-7-18-4-6-1v-1h14l8 2 7 4 10 5 12 1 6 2h17l2-1h11l3 2v2l3 1-2 5-11 7-12 6h-3v2l-7 3-4 2-9 2-6-1 1-3h-6l-4 2-9-1-10 3-2 1v-3l-10-2v-2h-2l-2-5-1-4-4 2-6-3-2 2-5 1-1-2-7-1-4 1-6-2-2-5-13-9-3-1-2-6h-2l-5-5-6-3-3-5v-2h-2l-3-3-4-2v-3l7-1 3 1v2h5v-3l2-1 1-15z" fill="#57630E"/>
<path transform="translate(965,307)" d="m0 0h1l1 10 1 1v5l-1 3 2 13 8 6 6 2 3 10 4 2 14 8 4 4v7h-2l-1 3v7l6 8v10l6 5 7 3h6l4-4 1-2h8l7 4 4 6-2 7h2l7 8 6 6 1 8 1 1 1 11h7l3 5 2 12 7 8 1 2-1 9-2 9-4 7-2 5-3 16 4 2v7l-5 8h-2l-2 10-1 6-12 12-2 5h-2l-1 4-7 12h-2l-3 10-10 19-3 7h-2v4h-2l1-5 4-8 4-7 6-17 5-7h2l1-4 5-9 7-10 6-6 3-1 1-11 3-6h2l2-5 1-1-1-7-2-4 1-9 6-16 2-3 1-9 1-6-8-10-2-9-2 1-3 5-5 4-5 7h-3l1-6 5-17 1-2v-11l-3-8-5-5v-2l-8 4-7-1-2-7h-4l-1 2h-2l-2 4h-6l-9 4-13 3-2-4 9-7 3-1 2-8 1-5 1-3-9-6-3-4 1-8-5-8v-8l3-6-3-1-1-5-4-3-7-2-3-2-9-2-2-10-6-4-3-4-2-7-3 3-4-1-1-4 4-4 4-8z" fill="#6A7510"/>
<path transform="translate(903,735)" d="m0 0 9 2 3 4-2 12-3 7-3 14-2 12-5 16-2 10-3 2-15-5h-17l-1-6 1-4-4-6-1-13 3 1 4 9 5 10 6 1 9-2 2-1-1-7-3-11v-4l-5-3-6-4-2-6-5-2-2-4 4-2 4-4 28-14z" fill="#27251F"/>
<path transform="translate(914,807)" d="m0 0 2 2-1 8-3 8-4 5h-2v2h-2l-2 4-6 4-5 3-16 4 2 6 1 1 9 2 11 6 9 3 10 9 9 11v4l-9-1-15-8-5-1v-2l-5-1-8-2-1-2-8-4-2-5-3-1-1-6h-2v-2h-8l-10 5-3 1v2l-8-1-3-1 1-5 2-1 1-8 4-6 8-4 2 6 1 2 3-2 6-2v-14l3 2v2l4 2 3 3 1 4h6l2-6 9-3 7-8 4-6h2l2-4 4-4 4 1z" fill="#2A300F"/>
<path transform="translate(704,664)" d="m0 0h4l8 11 3 9-3 5-1-2-11-1-8 2 1 2 10 2 6 1 4 4-11 1-5-2v3l-2 1-2 10-7 3-6 4-5-2-3 3-2 4 3 1-1 4-8 4-9 1-8-5v-2l-4-2-6-5v-2h-2v-2l-4-2-3-3v-2l-4-2-5-5v-2h-2l-5-8 9 3 2 5h3v5l5 2 3 6v2l5 1v2l10 1 4-3v-1l-1-2 7-12 7-6 4-4h3l1-4 8-2v-2l7-3 8-4 4-1-2-7z" fill="#3C4318"/>
<path transform="translate(784,446)" d="m0 0 10 1v1l-13 1-7 3-4 1v2l-8 4-1 1 5 4v2l7 1 5 1h15l2 3-3 17-1 4v-3h-2v-2l-4 2-6-1-1 4-2 3 1 12-2 3-11 1-13-3-1-3-2-2h7l2 1 1-7-5-2-2 2h-3l1-8-5-4-1-5h-2l-3-5-5-5v-2h-2v-2l-3-1v-4h16l10 1 5-5 5-4 5-3 9-3z" fill="#62760A"/>
<path transform="translate(940,628)" d="m0 0h3l3 7v11l3 4v12l5 1-1 7h-2v7l4-4 4-6 5-10 1-9 1-5 4-2v-2h3l3 8 4 2-1 12-3 4-2 5-7 8-1 5-4 6-8 16-1 11 4 1-9-1-2-4 1-8 3-7h2l1-4 5-12 3-3 6-11 1-6-3 1-10 16-7 1-6 10h-2v2l-4 1-4-1-2 9-2 3h-4l-1-3-4-4 3-4 1-6 4-6h2l2 6h2l2-5 1-1-1-5v-5h-2v-3h-2l-2-9v-16l2-12 3-1 4 2z" fill="#5E6D0E"/>
<path transform="translate(579,964)" d="m0 0 2 4v4h6l2 1 1-2 3 1v2l7-1 2 1v2l9 1 5 5 3 4-1 5-9 3-10 2-6 3v2l2 1v2h-4l3 5 4 4 4 11v11l1 7-1 17v7h-7l-2-10-2-16-1-17-3-9-2-5h-2l-2-5v-6l9-6 4-2 10-4 2-5-4-1-7-3-13-1h-7l-10 3-15 10-5 4-1 2h-2v2l-6 5-3 3h-2l-1 3h-2v2l-6 4-1 2h-2v2l-8 7-13 8-7 4-1 2-5 3-3 1v2l-5 4-3 4h-2v2l-5 2v2l-8 5h-2v2h-6l5-5 12-9 5-5 13-12 13-8 11-7 5-5 2-3h2v-2l6-4 7-7h2l2-4 11-11 14-9 12-4z" fill="#191A07"/>
<path transform="translate(666,739)" d="m0 0 6 1 14 6 8 3 1 4-3 4-9 5h-2l-1 3h-2v2l-9 7-7 4-8 5-9 7h-2l-1 3-7 4-5 5-5 4-3 1-2 3-9 5-2-1 1-3h2l2-4 5-9 5-5 9-12 4-5h2l2-5 7-7 8-10 9-14z" fill="#101802"/>
<path transform="translate(644,457)" d="m0 0 6 1 10 5 9 7 5 2 2 2 9 3 8 3 12 3 2 4 5 1 9-1 6-3 1-6-1-5h-2l-1-6-4-2 2-4h6l1 4 2 1v2h2l6 7 2 2v3h2l2 5 5 4-2 8 6-3 5 3-1 7h-3-5v3h-12l-9-3-9-5-6-1v-2l-11-1-9-6-30-10-11-6-8-9z" fill="#668103"/>
<path transform="translate(814,802)" d="m0 0 6 1 9 8 1 6 7 1 11 10v5l-5 4-3 5-4 2-1 2h-2l-2 10-3 8-4 3h-8l-7-3-2 1-1-2 1-14 3-18 2-25z" fill="#282620"/>
<path transform="translate(870,424)" d="m0 0 3 1 2 2 3 1-2 1v2l-3 2-3 8-5 12-3 5-6 2-11 2 2 5h-2v5l-4 1-3-3-7 4h-2l2 5 4 1 1 2v7l-4 1-3-3v-6l-4-2-7-12-3-9-2-7-1-3-6-2 2-4h2v-2l2-1h13l10 3 5 3 6-2 4-1 6-2 7-7 3-5h2v-2h2z" fill="#839B03"/>
<path transform="translate(924,656)" d="m0 0h1l3 17v6l-5 10-1 4-2 4 4 3v3l4-1 4-11h8v-2h2l2-4 4-7h6l-6 7-11 14-5 4-9 11-5-1-2-2v-7l2-4v-5l-5-2-4-4-1-2h-2v8h2l1 4-4 4-1 3-3 3-1 2v10l-2 5h-2l-2-6 1-7v-3l-4-10-3-4-4-13-5-1-2-5h-2v-7l6 1v2h5l-2-3v-3l5 2 1 1 3-3 2 1 1-4 8 4 6 8 4 5 2 3 3 1 1-5 1-8-1-7-1-4z" fill="#585912"/>
<path transform="translate(781,333)" d="m0 0 14 2 3 1 17 2 5 1h18l2 1-3 14 5 2-1 7-7 6-9-1h-12l-12 2-2-1-1-3-6-1-11 1v-4l10-3 28-7h11v-2l-6 1-2-1-14-1-7-2-26-5h-8l-8-4v-2l10-2z" fill="#849C03"/>
<path transform="translate(651,926)" d="m0 0h8l8 4 3-2h8l12 7 2 2-1 5-8 4-3-1-2-3-2 5-8 1-6 1 3 3-11 5v2h14l14-2 2 2v2l-13 2-1 1h-9l-12-2-4-3h4l-2-7-1-2h-2l-1 3-3 1h-24l-6-2 3-3h12v-2l-5 1-4-2v-2l7-4 15-2 6-2 4-6z" fill="#101802"/>
<path transform="translate(955,506)" d="m0 0h8v17l-1 6-1 13-2 1-2 5-7 10-2 5h-2v-8l-6 3v8l-3 3-2 4-3-1-2-12 1-7-9-1-7-2v-2l-6-1-1 2v-2l-6-1-3-4-2 1h-9l-7 2 3-5 8-5 3-1h7l12 4 9 7 12 1 3 2 5 1-2-8v-14l6-16 2 1-1 6h2v-11z" fill="#5E6E0D"/>
<path transform="translate(997,586)" d="m0 0 3 2v8l1 6-1 3v7l2 4 3 3 3 9 1 1v5l6-1v-2l8-7 9-5h2l1-3 1 2-5 9-8 16-5 8-4 5-2 9-4 1-2 4-3 1-1 6v2l-1 5-6 2-2-2 1-6 5-5 2-11 5-3 1-2h3l1-9 4-3-1-3-4-1-5 2-8 6-5-2-2-2 1-11 1-5-4-1-2 5-6 8-3-1-1-8 1-4v-9h-2v-6l2-1 3 2 2 4v11l3-1 5-15 4-15 1-9z" fill="#678104"/>
<path transform="translate(802,514)" d="m0 0 5 1 1 3-1 2-5 3-7 4h-2v2h2l1 2 6 1v7l-3 4v4l3 1 6-1 5 3 2 1 1-2 6 2 8 1 13 1v1l-11 2-9-2 2 9-4 1-5-2-2 4-6-1v-2l-3-1-1-5-4-1-2-5-1-2-2 5-6 3h-5-4l-1-2-3-1v3l-6 3h-3l-2 4h-2l-1 3-1 2h-2v2h-3l-1 3-5 1v2l-6 3-1 2 2 1-1 1h-5l-1-1h-10l-2 1-6-2 4-2h9l9-2h4v-2h2l2-4 2-5 1-2-2-6v-3l7-3 4-2 2-4h7l6-1h8l5 1 4-1 3-9-7 4-3 2-9-2-13 1-8 2 3-6 18-1 1-4 7-7h3l1-3h5l1-3 6-3z" fill="#61750B"/>
<path transform="translate(815,520)" d="m0 0 7 1 18 3 3 2v2h-10l-2 1v2l11 6 12 10 6 1 16-3 5-5 8-7 2-1h13l9 3-3 1-7-2-8-1v2l-8 4-5 5 8-2h7v2l3 1 1 6 1 3-3 3-6 1-7-1-3-1v-2l-5 1-3-1-7 2-17-5-15-3-10-1h-4v-2l-12 2-7-1 2-13 4-6 6-3h3v-2l-3-1z" fill="#849C03"/>
<path transform="translate(723,757)" d="m0 0 4 1-5 5-4 3-7 3-26 13-14 8-26 16-14 9-8 6-12 11-5 5-8 6-5 5-11 8-6 3h-2v2l-15 9-4 1v-4l4-5 14-8 12-6 7-6 8-7 9-10 4-1 1-3 5-4h2v-2l8-6 4-2h3l2-4 5-2v-2l4-1 5-8 6-3 6-5 27-14 25-9z" fill="#101802"/>
<path transform="translate(639,583)" d="m0 0h6l12 5v4l6-1 2-2 1 5-4 7 5 2 1 1 7 1-4-8 2-2h6l-4 2 1 4 4 7 5 4 1 4 4 2 4 11 2 7-2 4-10-5v-3l-4-1v-4l-4-2-6-15-2 2-4-1-1-1-2 4-1-3h-2v-2l-4-2-1-2-5-2-2-2h-11l-3 3-1 3-4 3v3h-2v2h-3v2h-2l1 8-4-1-2-2h2v-2h-7l-5 3-2-1 6-11 6 4h3 2l4-8 4-2 1-2h2l2-5 2-1 2-12z" fill="#5E6D0D"/>
<path transform="translate(607,510)" d="m0 0 4 1 8 7 4 11 4 17 1 1-1 21-1 8-4 2-9-1-4-4-4-2-2-6v-20l2-5 2-10 5-4h2l-7-13z" fill="#849C03"/>
<path transform="translate(619,486)" d="m0 0 2 1v2h2l4 7 5 2 5 4v2h2l2 3v3l5 1 12 9 1 5h5l2 1 7-1 5 3 5-2h3l5 2 5-2 1 10h2v2l3-1 7 3 1 2 10-4h7l5 1 2-2 6 1v2l7 1 7-2 7-4h4v-2l9-4 6-3 11-7 1-4-2-2h12l1 4-7 4-1 2-5 1-1 2-5 3-4 2-2 6-2 1-16 1-3 5-4 1-5-1-1 4h-2v4l-4 3h-2l1-9-5-1v2l-6 1-2-4h-7l-3-1-11 4-2-4-3-1-4 2-4-5-3 3-5-1 1-10-2-1-4 2h-4l-1-2-4-1-1 2-7 1-4-2-3-5-5-1-5-5-6-4-3-9-6-2-5-2-2-5-5-7z" fill="#5E6D0D"/>
<path transform="translate(811,230)" d="m0 0h22l6 2v2l9 1 6 3h12l9-8h9l2 4 9 3v2l4 1 3 9-3-1-2-4-8-1-6-3-10-1-10 5-11-4-5-1v3l-4-1 1-4-17-4-15-1v2l-17 2-6 1 1 4h-21l-6 2h-16l-12 2-3 4h-4l-1-8-2-2-6-1-33 5-7 4h-8l-7 4 1-4 4-1v-2l16-7 26-2 8-2h8l11 4h20l7-1 20-1 10-3h16z" fill="#7E8F08"/>
<path transform="translate(607,388)" d="m0 0 8 6 6 5v2l4 2 11 8 7 5v2l4 2 10 6 11 8 1 3-13 1h-14l-10-4-9-10-4-8-7-3-7-14-1-5 1-4z" fill="#B0C305"/>
<path transform="translate(573,489)" d="m0 0 5 1 1 10-1 1 13 1v2l7 1 6 3 1 5-2 3h3l1 5-3 4 1 5 1 6-3 5-5 10-3 7-4-1-1-5-5-2-2 5-3-1-2 4-1 10h-1l-2-12v-10l1-2v-9l-1-5 4-8 6 4-3 5 1 6 6 6 4-5h2l4 4 3-7-1-10-2-8-6-3-8 2-2-4h-8l-4-7-6-2v-2l-7-1-3-3 13 2 3 1 2-10z" fill="#5E6E0D"/>
<path transform="translate(506,609)" d="m0 0 4 1-9 3v2l13 1 7-2 17-2h38l1 6-2 1h-7l-7-3-19-1-6 1-2 1-10 1-9 3h-5l-9 4-4 2-11 2-10 3-1 2-9 2-11 6h-7l-1-5 2-3h2v-2l7-6 12-6h4v-2l7-3 23-5z" fill="#1A1B08"/>
<path transform="translate(586,941)" d="m0 0h8l19 4v1l-5 1-4 4-12 1-2-2-13-2-30 2-10 2-10 5-21 6-8 3-6 3h-3v2l-14 7-6 4-10 5-5 4-8 3-3 1v2l-14 8-6 7-6 4-3 1-1 3-4 1v2l-5 3-4 8-5 8-8 7-6 5-1 2h-2v2l-8 5-2 3h-3v-3l8-7h2v-2l5-4 2-3h2l2-4 7-8 3-7 5-6 5-3h2v-2l8-6 5-1v-2l5-5 8-6 12-8h3l1-2 16-8 7-3 13-8 12-6 24-7 15-6 3-2 5-1 31-2z" fill="#101802"/>
<path transform="translate(728,1027)" d="m0 0h9l7 1 3 2 2 8-3 5-9 2-4-2v-2l-4 1-5 1v2l-9 4 1 11 1 6h-7l-8-16-4-4-2-4v-9l4-2 3 2 10-5 10 1z" fill="#292F0E"/>
<path transform="translate(862,554)" d="m0 0 14 2 3 2 4 2 10 2 7 1 3 2 4-1 9-7h4l-1 13h2l1 9h-2l-1 10 2 1 1 7 1 13 1 4h2l2 5v7l-1 3v25l-1 7-3-4 1-15-1-6-1-14-4-4 1-7-2-7-1-3 1-9-1-6 1-10-1-5 1-8-3 1-2 3-3 9-1 1-2 13h-3v3l-2 1-1 5h-3l-2-16h-3l1-7 2-7-10-2-7-3-7 1-2-5-3-2v-2z" fill="#5D6B0E"/>
<path transform="translate(927,714)" d="m0 0h7l1 2-3 3 4 1h10l24 4 13 5 2 4-2 2-11 2h-21l-14-1-18-1-6-2 1-5 3-3 1-3 4-2z" fill="#101802"/>
<path transform="translate(782,770)" d="m0 0h14l6 4v7l-3 3h-3l-3 5h-2l-1 10-2 12-2 1-2 5-11 11-3-1v-15l3-8 5-10 6-3-5-2h-2l-1 2-3-11 2-8z" fill="#091001"/>
<path transform="translate(995,455)" d="m0 0h2l-2 6-7 8-8 5-3 3-11 3-3 6-10 1-8 2-1-1 1-19 9-5 19-5h7l5-2z" fill="#57630E"/>
<path transform="translate(858,361)" d="m0 0h3l3 6v2h2l1 6-1 3-7 2-4 3-9 3-3 3-7 2-8-1-9-1-3-2v-3l-24 1-15 3-9-1v-1l16-3 12-3 16-1 3-1h14v-2l4-2h6l1 2 5-3 5-5z" fill="#839B03"/>
<path transform="translate(903,832)" d="m0 0v3l-8 6-9 3-11 3 2 6 1 1 9 2 11 6 9 3 10 9 9 11v4l-9-1-15-8-5-1v-2l-5-1-8-2-1-2-8-4-2-5 4-2-2-7-1-1v-9l18-6 6-4z" fill="#282E0E"/>
<path transform="translate(978,404)" d="m0 0 3 1 7 1 8 4 2 2-1 6-2 9 1 4-1 6v10l1 3-6 2v3l-9 3-4-1 7-2-2-6-2-9 1-9 1-4-1-8-5 3-4-2-1-7 4-7z" fill="#AFC204"/>
<path transform="translate(899,541)" d="m0 0 1 3 9 3 6 1v2h6l1 1 9 2v8l1 5-1 4-1 8h-3-2l1 8-1 5-3-1-1-7v-13h-2v-9l1-4-5 2-9 7-5-1-6-2-9-1-7-2-3-3-6-1 2-2 5-1 3 1h3l2 2h6l3 1 6-2 1-2-1-5-2-1h2l-3-4z" fill="#668103"/>
<path transform="translate(901,408)" d="m0 0h20l-2 2-18 6-7 1-1 3-8 2-4-1-1 1-11 2-3 5-5 5-2 3-10 3-10 2-6-3-1-2-11 1h-7l2-3 8-3h13l6 1 8-6 10-6 6-6 5 1 8 2 2-3h2v-2l9-4z" fill="#575A12"/>
<path transform="translate(912,333)" d="m0 0 4 1 1 5h2l1 3 3 3 1 6-4 17-2 4v7l-3 6-8 6-5-3v-2h-2l-1-8 4-4 6-3-2-2v-17l2-15z" fill="#849C03"/>
<path transform="translate(929,490)" d="m0 0h4l3 10-1 10-7 21-4 13-7-7-13-4-1-4 5-4 2-4 3-3h2l2-4h2l2-4 1-4h2l-1-3 2-3 3-2 2-6z" fill="#668103"/>
<path transform="translate(991,480)" d="m0 0h2v45l-1 17-1 7-1 6-2 2v-2h-2v-2h-2l-2-4-3 8-3-1v-7l2-13 1-10 6-7 1-6-3-1 1-5 1-7 2-6z" fill="#B0C305"/>
<path transform="translate(1036,412)" d="m0 0h3l2 4 8 3-1 2h-9l-1 3 6 9 7 1 2-4 4 1 8 8 1 8-2-4-6-7v-2l-8 4-7-1-2-7h-4l-1 2h-2l-2 4h-6l-9 4-13 3-2-4 9-7 3-1 2-8 1-5 1-4 18 3z" fill="#668103"/>
<path transform="translate(658,928)" d="m0 0h7l1 2h1l3-2h8l12 7 2 2-1 5-8 4-3-1-2-3-2 5-8 1h-14l-4-1-1-4 2-9z" fill="#091001"/>
<path transform="translate(694,560)" d="m0 0 2 2-2 6-1 8h7l4-2-2 4-10 8-7 5h-2v2l-4-1-2-4-4-3-1-5v-3l-1-5-7 1-2-4 1-6 6-1 2 5 8-3h3v2l9-4z" fill="#849C03"/>
<path transform="translate(970,639)" d="m0 0h3l3 8 4 2-1 12-3 4-2 5-7 8-1 5-4 6-8 16-1 11 4 1-9-1-2-4 1-8 3-7h2l1-4 5-12 3-3 6-11 1-6-6 2 3-9v-10l3-3h2z" fill="#5E6D0D"/>
<path transform="translate(594,428)" d="m0 0 4 1 3 19 1 3h2l5 10 2 5h5l2-4 3-2h3l1-3 8-3 1 5 2-3 3 1-1 2-5 5-1 15-3 1v3h-5v-2l-9-2-6-5-3-7-1-8-2-2v-4h-2v-3h-2l-2-6h2v-2l-6 1v-2l-5-2v-2l-3-1 1-2 3 2 2-5h2z" fill="#657F03"/>
<path transform="translate(624,995)" d="m0 0h6l2 1v2l4 2 7 5 1 2-1 13-3 5-2 3h-6l-7-8-2-1-1 3-5-5-2-10 2 2 1-9 6-3z" fill="#191A07"/>
<path transform="translate(537,605)" d="m0 0h42l3 21-5-2-1-6v-6l-7 1h-31l-17 2-9 2-11-1v-4l12-4 11-2z" fill="#2A300F"/>
<path transform="translate(676,603)" d="m0 0 4 2 5 3 2 4v3l5 2 3 2v6l2 1 4 5-1 9v4l-6-1-4-3-7-3-11-8-5-1-2 3-4 2-5 2v2h-2v-3l-2-1 1-4 6-4 1-10-7-7-2-4 3 1 4 4v2h2l1 2 2-4 5 3 1-3 2 1 4 8 1 5 4 4 1 3 2 1 1 4 6 2 4 2 1-4-5-15-5-6-5-5z" fill="#5E6D0D"/>
<path transform="translate(1006,957)" d="m0 0 5 1 6 4v6l-2 5 3-1-1 9 1 6-4 4-7 1-6-3-5-5-2-3 1-5 6-4v-9l3-4h2z" fill="#292F0E"/>
<path transform="translate(571,443)" d="m0 0 8 4 3 5 4 4 4 8v2h2l4 9 4 13 3 6 3 2v2l7-1 8 3 2 4v4l-4 1v-2l-9-1v4h-3l7 14v2l-6 4-2 4-3-5 1-5 2-3v-5h-3l1-8-6-2-7-2v-1h6l3 1-2-9-1-9-4-10v-2l-5-2-2-8-3-1-3-5v-2l-3-1-5-9z" fill="#668103"/>
<path transform="translate(1010,640)" d="m0 0 5 2v4l-3 2-2 9h-3l-2 4-4 1-1 11-6 7-5 4-4-1v-7l2-9 3-9 5-7 5-5 6-5z" fill="#5E6D0E"/>
<path transform="translate(696,700)" d="m0 0h2l-1 10-7 3-6 4-5-2-3 3-2 4 3 1-1 4-8 4-9 1-8-5v-2l-4-2 3-1 6 5 5-3h2l2-6 1-7 2-6 8-4v2h6l2 1v2l4-2h6v-3z" fill="#373519"/>
<path transform="translate(973,685)" d="m0 0 6 1 2 3-1 15-5 10-2 2h-14l-3-2 4-16 7-10z" fill="#668103"/>
<path transform="translate(514,449)" d="m0 0 2 1-3 3 3-1 4 3v2h2v3l-5 2-4 3 12-2 3 6v2l4 1 4 4 4 10 13 9 1 2-5 3-3 1-1 4-4-2v-7l1-5-6-7-2-7-4-2-4 8-6-1-5-6-1-7-3 1-4-5v-11l5-4z" fill="#57630E"/>
<path transform="translate(585,298)" d="m0 0 4 1-10 7-2 4-4 4-3 5-5 1-1 5-4 9h-2l-2 12-1 2h-2l-2 5-8 5-2 8-6 5-1 3 5 1 3 4-1 6-3 1-7-5-6-11-2-1-2 9-2 2 1-14 4-4 15-4h2l1-3 9-6 3-9 1-9 4-3h2l3-9 7-8 5-6 6-5h3z" fill="#657D05"/>
<path transform="translate(654,964)" d="m0 0 35 2 7 3-2 4-8 4-6 4-4 1-12-5-10-3-9-5 4-4z" fill="#091001"/>
<path transform="translate(578,522)" d="m0 0 6 4-3 5 1 6 6 6 4-5h2l4 4 3-7 1-6 3 1 1 6-3 5-5 10-3 7-4-1-1-5-5-2-2 5-3-1-2 4-1 10h-1l-2-12v-10l1-2v-9l-1-5z" fill="#5E6D0E"/>
<path transform="translate(673,595)" d="m0 0h6l-4 2 1 4 4 7 5 4 1 4 4 2 4 11 2 7-2 4-10-5v-3l-4-1v-4l-4-2-6-15-2-1-2-6 9 2-4-8z" fill="#61750B"/>
<path transform="translate(833,527)" d="m0 0h11l2 1v2l6 1 7 5h6l3 2 9 1 1 2-3 4-9 3-7 1-6-2-11-9-12-7 1-3z" fill="#688303"/>
<path transform="translate(1079,464)" d="m0 0h1l2 12 7 8 1 2-1 9-2 9-4 7-2 5-3 16 4 2v7l-5 8h-2l-2 10-1 6-12 12-2 5h-2l-1 4-7 12h-2l-3 10-10 19-3 7h-2v4h-2l1-5 4-8 4-7 6-17 5-7h2l1-4 5-9 7-10 6-6 3-1 1-11 3-6h2l2-5 1-1-1-7-2-4 1-9 6-16 2-3 1-9 1-6-7-9-1-4z" fill="#4F5912"/>
<path transform="translate(952,425)" d="m0 0 4 2 2 5 1 11 3 5 1 4v7l-3 2-6 1-2-3v-4l-7 2-4 1v-4-3l3-1 1-11 3-1z" fill="#B0C305"/>
<path transform="translate(802,514)" d="m0 0 5 1 1 3-1 2-5 3-7 4h-2v2h2l1 2 6 1v7l-4 6-2-1 1-7-7 4-3 2-9-2-13 1-8 2 3-6 18-1 1-4 7-7h3l1-3h5l1-3 6-3z" fill="#62760B"/>
<path transform="translate(723,964)" d="m0 0 17 1 6 5 3 9v16l-2 2-4-1-1-4h-2l-5-9-2-5-4-5-5-5z" fill="#282620"/>
<path transform="translate(931,710)" d="m0 0 4 1 9 4 10 3 26 1 3-1v4h9l3-1h7l-2 4-3 3-11 4-8-4-8-3-24-4h-12l-3-2 3-1v-3l-6-1v-2z" fill="#1A1B08"/>
<path transform="translate(811,230)" d="m0 0h22l6 2v2l9 1 6 3h12l9-8h9l2 4 9 3v2l4 1 3 9-3-1-2-4-8-1-6-3-10-1-10 5-11-4-5-1v3l-4-1 1-4-17-4h-15l-20 1 3-2h16z" fill="#616A12"/>
<path transform="translate(781,792)" d="m0 0 4 1 2 4v14l-3 6-11 11-3-1v-15l3-8 5-10z" fill="#101802"/>
<path transform="translate(895,534)" d="m0 0h7l12 4 9 7 12 1 5 4-1 1h-16l-8-1v-2l-6-1-1 2v-2l-6-1-3-4-2 1h-9l-7 2 3-5 8-5z" fill="#62760B"/>
<path transform="translate(573,429)" d="m0 0h7l8 8v2l5 2v2l3 1 3 9 1 7v7h-6l-2-10h-2l-2-6-2 2-4-9-3-5-8-2v-7z" fill="#57620F"/>
<path transform="translate(782,334)" d="m0 0 13 1 3 1 11 1v2l8 1 2 1h19l-1 4-17 1-16-1-1-1-15-2-11-2-13-1v-2l7-2z" fill="#798210"/>
<path transform="translate(625,634)" d="m0 0 2 4 4-1-1 3 4 1v5l-3 1 1 4h5l1 3h-5l5 8-5 5h-4l1 3-3 2-4-1-2-2h-5l1-3h5l2-3h2v-3l-6-2v-2l-3 1 1-3 3-2 1-2 4-1 1-1-3-1v-2h-2l2-4 1-3z" fill="#5F6D0E"/>
<path transform="translate(497,386)" d="m0 0 5 1 1 2h-5l16 8 11 6v5l-5 5-3 2v-2l-4-2-8-5-5-5-2-3h2l-5-5-2-1 1-4z" fill="#373618"/>
<path transform="translate(663,1042)" d="m0 0h5l5 4 3 2v2l3 1v6l-11 1-1-3-7-1-5-1-5 3-7-1-2-1 3-9 6 1 4 3 5-1 1-4z" fill="#191A07"/>
<path transform="translate(871,770)" d="m0 0 7 4 4 3v6l2 8-1 6-2 2h-9l-6-9-5-13 4 2 3 5 3 1 1-7 1-6h-2z" fill="#101802"/>
<path transform="translate(696,582)" d="m0 0 5 1 3 6 3 1 2 3 3 1-1-7-1-4 3 1 4 6 9 12v2h2l1 6-4-1h-3l-1 2-7-5-5-3-3-4v-2l-4-1-2-5v-7l-4 2-4-1z" fill="#5E6D0E"/>
<path transform="translate(723,398)" d="m0 0h12l20 2 13 3 19 3v3l-1 1h-10l-21-3-2-1-21-2-14-3 2-2z" fill="#575912"/>
<path transform="translate(794,537)" d="m0 0h3l-1 7-3 4h-8v-2l-8 1-13 1-2 4-5 3-6 1 1 3h-4v2h-2v-3h2v-3l3-1 3-3 2 1 1-3h2v-2l5-2-10 2-9 4 1-5h2v-2l4-1 4 1 9-3 13-1 9 2z" fill="#668003"/>
<path transform="translate(882,541)" d="m0 0 1 3 7-2h7v2l3 1 1 6 1 3-3 3-6 1-7-1-3-1v-2l-5 1-6-2 3-3 3-5z" fill="#839B03"/>
<path transform="translate(862,554)" d="m0 0 14 2 3 2 4 2 10 2 7 1 3 2 4-1 4-3h2l-5 10-4-1v3h-2v5l-3 1-5-3 1-7-10-2-7-3-7 1-2-5-3-2v-2z" fill="#5E6D0E"/>
<path transform="translate(971,645)" d="m0 0 3 3 1 9-4 7-3 7-1 2h-2l-3 11-4 9-5 9-1 5v7l5 2v1l-9-1-2-4 1-8 3-7h2l1-4 5-12 3-3 6-11 1-6-4 1 3-11h2l1-4z" fill="#57630F"/>
<path transform="translate(929,268)" d="m0 0 4 4 7 13 5 3 1 4 2 1 2 5 2 2h8l3-1 2 8 1 14-6 11-2 1 2-5 4-9-2-10-5-1-5 2-5-1-1-4-1-8-5-1-3-10-6-10-3-4z" fill="#829804"/>
<path transform="translate(940,628)" d="m0 0h3l3 7-1 16-4-1-1-3h-2v2h-4l-1 5-2 1-1-8-1-5 2-12 3-1 4 2z" fill="#5D6C0E"/>
<path transform="translate(761,544)" d="m0 0 4 1-2 2h-4v2l-3 3h-3l-2 3h-3v3h-2v10l2 3-6 2h-2l-1 5h-3v-6l-5-2 4-7 8-11 14-7z" fill="#849C03"/>
<path transform="translate(614,269)" d="m0 0h7l5 3h9l6-2-2 4-5 1-1 7-5 4h-4v-2h-2l-4-6v-2h-4l-1 4-7 4-5 8-4 2v-2l4-3 4-9 4-5z" fill="#63710D"/>
<path transform="translate(927,552)" d="m0 0 4 1v8l1 5-1 4-1 8h-3-2l1 8-1 5-3-1-1-7v-13l-2-1 2-15z" fill="#849C03"/>
<path transform="translate(733,461)" d="m0 0h11l3 2 10 2 8 4 2 7-7 3h-5l-3-5-8-3-10-6-2-1z" fill="#5E6D0D"/>
<path transform="translate(951,517)" d="m0 0 4 1 1 4-2 5 3 8v8l-3 4h-3l-2-2-1 2-4-1-1-13h2l1-5 3-8z" fill="#57630E"/>
<path transform="translate(917,581)" d="m0 0h1l1 8 2 1 1 7 1 13 1 4h2l2 5v7l-1 3v25l-1 7-3-4 1-15-1-6-1-14-4-4 1-7-2-7-1-3 1-9-1-6z" fill="#5E6D0E"/>
<path transform="translate(909,288)" d="m0 0 3 2 5 15 2 1h9l4-3 4 1-1 9-4 9-4 5h-2l-1-2v-6l1-5-5-3-8-8-3-4-1-7z" fill="#849C03"/>
<path transform="translate(1e3 725)" d="m0 0 6 1 13 6 1 3-9 1h-26l-3-3v-2l11-4z" fill="#101802"/>
<path transform="translate(712,353)" d="m0 0 11 1 14 4v2l7 1 11 4 18 4 7 3-1 2-11-1-15-4-9-4-7-1-7-2-12-4-6-4z" fill="#829705"/>
<path transform="translate(639,583)" d="m0 0h6l12 5v4l6-1 2-2 1 5-3 5h-5l-4-2v-2h-5l-3 2-6-2-3 3-2-1 2-12z" fill="#62760A"/>
<path transform="translate(975,460)" d="m0 0 3 2-1 6-5 5h-7l-10 3h-6l-1-4 1-2h2l1-4 12-2 6-3z" fill="#565912"/>
<path transform="translate(554,497)" d="m0 0 13 2v2l12 2 7 2-1 3 5 1 2-4 3 1-1 5h5v2h2v8l1 8-2-4-2-8-6-3-8 2-2-4h-8l-4-7-6-2v-2l-7-1z" fill="#57640E"/>
<path transform="translate(938,507)" d="m0 0 3 1 3 5-1 7-3 10v9l1 6-1 2-14-3 6-7 2-5 1-13z" fill="#B0C305"/>
<path transform="translate(1067,449)" d="m0 0h1l1 11 8-1 2 3 1 15-2-2-1-7-2 1-3 5-5 4-5 7h-3l1-6 5-17 1-2z" fill="#5F6E0D"/>
<path transform="translate(799,549)" d="m0 0 1 2 8 1 5 1 9-1 5-1 3 1 13 1v1l-11 2-9-2 2 9-4 1-5-2-2 4-6-1v-2l-3-1-1-5-4-1-2-5z" fill="#5E6D0D"/>
<path transform="translate(943,343)" d="m0 0 7 1 2 7 3 4-1 3-8-5-1 1 1 13 5-1 1 4-3 8-5 1-4-2v-5l1-3v-13l2-5-1-6z" fill="#849C03"/>
<path transform="translate(628 1e3)" d="m0 0 5 1 6 4 2 5-2 9-5 2-5-3-6-9v-6z" fill="#091001"/>
<path transform="translate(996,652)" d="m0 0 7 2-2 5-3 6-3 10-5 6-4-2 1-12 3-9 4-5z" fill="#57630F"/>
<path transform="translate(798,233)" d="m0 0h14v1l-17 2-6 1 1 4h-21l-6 2h-16l-12 2-3 4h-4l-1-8-2-2-4-1v-2l10 1 9 3h22l6-2 18-1 6-3z" fill="#839B03"/>
<path transform="translate(629,942)" d="m0 0 9 1 6 4v3l-1 3-3 1h-24l-6-2 3-3h12l2-5z" fill="#091001"/>
<path transform="translate(977,943)" d="m0 0h3l2 4 4 7 6 5-2 1v2l-11 2h-5l-2-5-3-1 1-4 5-5z" fill="#292F0E"/>
<path transform="translate(1e3 685)" d="m0 0v3l-6 12h-2l-2 4h-2v5l-4 5h-2l-1 4-4 2 2-11 1-13 2-6h6l2 3-2 8h2l8-15z" fill="#485214"/>
<path transform="translate(854,761)" d="m0 0h7l6 2 4 6v3h2v6l-2 7-4-1-6-10v-3l-6-2-2-3z" fill="#091001"/>
<path transform="translate(955,506)" d="m0 0h8l-1 6-1 3v9l-4 11-2-4v-3l-2-1 2-6-1-3-3-1-1 3-4 4h-2l1-9 3-4 1 3-1 4h2v-11z" fill="#5E6D0E"/>
<path transform="translate(640,453)" d="m0 0 4 1 2 10 8 9 9 5v2l4 1 7 4 5 2 7 2 2 4-5-1-11-4-10-4-5-4-5-3-9-7-3-13z" fill="#869D03"/>
<path transform="translate(906,406)" d="m0 0h8v2l-21 2-9 3v2h-2l-2 4-9-3-5 1-9 8-9 5-5 4-6-1h-13l-8 3-3-1 12-5 15-1h5l5-4 10-5 5-7 9 1 5 1 3-4 12-4z" fill="#7D8C0B"/>
<path transform="translate(995,455)" d="m0 0h2l-2 6-7 8-8 5-3 3-11 3-3 6-10 1-8 2-1-1v-6l2-2v2l8-1 8-4 8-2 6-2 2-2 5-2 6-5 4-5-8-1v-1z" fill="#5E6D0D"/>
<path transform="translate(578,522)" d="m0 0 6 4-3 5 1 6 6 6 4-5h2l4 4v3l-1 3h-2l-2-3h-2l-1 2-5-1-1-4-4 1-2 4-2 2v6l-2 1v-10l1-2v-9l-1-5z" fill="#57620F"/>
<path transform="translate(986,469)" d="m0 0v3l-4 9-5 5-2 8-1 5-3 2-2 6-2 1v6l-3 5v7h-2v-13l2-7 4-4v-3l-2-1 4-12 3-3 2 1 1-3h2l-1-3 5-5z" fill="#668103"/>
<path transform="translate(710,984)" d="m0 0h10l3 3v9l-1 3-6 1-7-2-3-4v-6h2v-2h2z" fill="#2A300F"/>
<path transform="translate(888,897)" d="m0 0 15 1 4 2 1 5-3 4-5-1h-4l-12-3-3-3v-2z" fill="#101802"/>
<path transform="translate(814,545)" d="m0 0h8v2l10-1 13 3 16 4v1l-31-1-13-2h-4l-5-3v-2z" fill="#658003"/>
<path transform="translate(903,832)" d="m0 0v3l-8 6-9 3-11 3 2 6 1 1 9 2 3 3-8-2-1 11 2 3-5-1-5-5 2-4h2l-2-7-1-1v-9l18-6 6-4z" fill="#1A1B08"/>
<path transform="translate(814,526)" d="m0 0 10 1 6 3 12 7 7 6v1h-5l-6-5-9-3-14-1-3 1v-6z" fill="#B0C305"/>
<path transform="translate(1038,409)" d="m0 0 8 6 6 3-1 5h-2v2l4 1 2 4-4 4h-7l-7-10 2-4h9l-8-4-1-4-3-1z" fill="#61730B"/>
<path transform="translate(771,550)" d="m0 0h6l2 2 11 2 1 2-7 1h-4l-1-2-3-1v3l-6 3h-3l-2 4h-2l-1 3-1 2h-2v2h-3l-1 3-2-1 1-4h2v-2l3-3 2-8h3l2-4 5 1z" fill="#5E6D0E"/>
<path transform="translate(1067,565)" d="m0 0 2 1-7 8-4 8h-2l-1 4-7 12h-2l-3 10-10 19-3 7h-2v4h-2l1-5 4-8 4-7 6-17 5-7h2l1-4 5-9 7-10z" fill="#556011"/>
<path transform="translate(670,928)" d="m0 0h8l12 7 2 2-1 5-8 4-3-1-3-11-10-4z" fill="#101802"/>
<path transform="translate(674,744)" d="m0 0 7 3 1 5-9 7-6 1-3-1 1-7 3-7z" fill="#091001"/>
<path transform="translate(1035,408)" d="m0 0h8l7 4 4 6-2 7h2l7 8 6 6 1 8 1 1 1 11 2 2-4-1v-11h-2l-2-10-11-11v-2l-4-1v-2l2-1 1-4-4-1-8-6h-3l-1 6h-8l-10-3-1-2 5 1 2 1h6l4-4z" fill="#4A5114"/>
<path transform="translate(719,233)" d="m0 0h8l11 4h20l7-1 20-1 7-1-6 4-18 1-6 2h-23l-8-3-3-2-15-1v-1z" fill="#656C11"/>
<path transform="translate(782,770)" d="m0 0 5 1v10l-8 8h-2l-1 2-3-11 2-8z" fill="#0F0B01"/>
<path transform="translate(676,603)" d="m0 0 4 2 5 3 2 4v3l5 2 3 2v6l2 1 4 5-1 9v4l-6-1-4-3-5-2 1-3 8 4 1-4-5-15-5-6-5-5z" fill="#5D6C0E"/>
<path transform="translate(891,532)" d="m0 0h13l9 3-3 1-7-2-8-1v2l-8 4-8 6-4 6-5 3-6-1-1-1-8-1-6-7 4 2 7 2 16-3 5-5 8-7z" fill="#B0C305"/>
<path transform="translate(514,449)" d="m0 0 2 1-3 3 3-1 4 3v2h2v3l-5 2-4 3 12-2 1 5-1-2-6 1h-11l-1-2v-11l5-4z" fill="#6A8304"/>
<path transform="translate(938,714)" d="m0 0 9 2 7 2 26 1 3-1v4h9l3-1h7v2l-7 4h-9l-13-4-23-3-8-3z" fill="#2C3210"/>
<path transform="translate(537,605)" d="m0 0h22l-1 2-12 2-14 1-17 3h-6l1-4 14-3z" fill="#373519"/>
<path transform="translate(739,1050)" d="m0 0h8l-3 3-6 2-3 11h-9v-4h-2l1-7 5-3z" fill="#101802"/>
<path transform="translate(573,429)" d="m0 0h7l8 8v2l5 2 2 4v4l-5-1-1-3-3-1-2-4-4-2-9-1v-7z" fill="#565A12"/>
<path transform="translate(581,329)" d="m0 0 4 1 2 3v9l1 14-3 5h-2l-2-10-1-21z" fill="#7C890C"/>
<path transform="translate(682,326)" d="m0 0 9 1 7 3 2 5 9 8 1 7h-2v-2l-4-2-9-11h-8l-5-5z" fill="#849C03"/>
<path transform="translate(571,842)" d="m0 0 2 1-1 4-3 7-8 4-8 6-6 7-3 1v-4l5-5 3-1 1-4 8-7 5-5z" fill="#363419"/>
<path transform="translate(718,684)" d="m0 0 2 1 1 10-6 1-3-2-7-2-1 2v-2l-7-1-2-3 9-3 9 1 3 2z" fill="#485314"/>
<path transform="translate(864,429)" d="m0 0 2 1-6 8-6 4-7 1-5 3-6-2-7-3-4-1h-15v2l-3 1 1-5 3-2 10 1h11l7 4 10-2 10-3z" fill="#767C12"/>
<path transform="translate(882,917)" d="m0 0 9 1 9 6 5 4v3l-7 2h-6v-4h-3l-3-9z" fill="#101802"/>
<path transform="translate(865,621)" d="m0 0 4 1 1 3 7 1 4 11v5l-7-3h-7l-2-1 2-4h3l-2-7-3-2z" fill="#373519"/>
<path transform="translate(827,395)" d="m0 0h7l9 4 10 5 7 3-1 2-8-1-5-1h-6l-1-2-7-4v-2h-5z" fill="#849C03"/>
<path transform="translate(724,396)" d="m0 0h10l20 2 12 3 1 2-12-2-20-2h-12l-3 1 4 2-9 1-11 3-5-3-4-5 9 1 2 3 9-2z" fill="#7D8B0B"/>
<path transform="translate(696,582)" d="m0 0 5 1 3 6 3 1 2 3 3 1-1-7-1-4 3 1 4 8 1 3 2 1-1 5-11-3v-2l-4-1-3-1-1-8v-2l-4 2-4-1z" fill="#61740B"/>
<path transform="translate(926,524)" d="m0 0 3 1-1 6-4 13-5-5-5-4 1-4 5-4z" fill="#62760A"/>
<path transform="translate(632,600)" d="m0 0 3 1-3 3-1 3-4 3v3h-2v2h-3v2h-2l1 8-4-1-2-2h2v-2h-7l-5 3-2-1 6-11 6 4h3 2l4-8 4-2 1-2h2z" fill="#5E6D0E"/>
<path transform="translate(1e3 365)" d="m0 0 5 3 3 3v7h-2l-1 3v7l6 8v10l6 5 1 3-5-2-6-5-1-4 1-6-5-8v-8l3-6-3-1z" fill="#586012"/>
<path transform="translate(916,557)" d="m0 0h4l-1 13h2l1 9h-2l-1 7h-1l-2-15 1-8-3 1-2 3-2 6h-2l-1 3h-6l1-4 2 1v-3l3-1 1 1 2-5z" fill="#59660E"/>
<path transform="translate(651,604)" d="m0 0 3 1 4 4v2h2l3 5v6l2 4h5l1-2 3 3-2 2-5-1-2 3-4 2-5 2v2h-2v-3l-2-1 1-4 6-4 1-10-7-7z" fill="#57630F"/>
<path transform="translate(558,424)" d="m0 0 9 3h8l4 2-8 1 1 4-1 3h6l5 5-1 2-3-1-6-1-5-5v-3h-2v-2l-4-1-3-5z" fill="#5F6C0E"/>
<path transform="translate(671,246)" d="m0 0h2l-1 3-5 2v2h-2v3l-4 4-8 3-1 1h-8v3h-2l-1 2v-7l4-2v2l5-1 2-4 5-2v-2l8-3z" fill="#7B8E08"/>
<path transform="translate(533,474)" d="m0 0 3 2 4 10 13 9 1 2-5 3-3 1-1 4-4-2v-7l1-5-6-7z" fill="#57640E"/>
<path transform="translate(907,413)" d="m0 0 3 1-5 3-7 3-10 4-4 2-7 2-4-1-3-3v2h-2l-1 2 1-4 4-2 8-1 2-1 4 1 7-2 3-3z" fill="#6B790E"/>
<path transform="translate(780,336)" d="m0 0 16 1 15 3 5 2v2h-11l-2-1-14-2-12-3z" fill="#585912"/>
<path transform="translate(914,807)" d="m0 0 2 2-1 8-3 8-4 5h-2v2h-2l1-3 1-11 3-6 2-3h3z" fill="#363419"/>
<path transform="translate(594,428)" d="m0 0 4 1 3 19 1 5-1-3h-2l-2-6h2v-2l-6 1v-2l-5-2v-2l-3-1 1-2 3 2 2-5h2z" fill="#657F03"/>
<path transform="translate(497,386)" d="m0 0 5 1 1 2h-5l16 8 11 6v5l-4 4-3-6-5-6-10-5-7-3-1-4z" fill="#545812"/>
<path transform="translate(873,917)" d="m0 0h2l-1 5 1 9 4 2 1 3-7-1-7-3v-11l5-3z" fill="#101802"/>
<path transform="translate(911,561)" d="m0 0h2l-5 10-4-1v3h-2v5l-3 1-4-4 3-2 1-3-2-1v-2l-7-3 3-2 7 1 3 2 4-1z" fill="#61750B"/>
<path transform="translate(890,375)" d="m0 0 3 1-3 5-4 1 1 1v7l-4 2-1 2-2-5v-3l-4-1v-4l8-2 1-3z" fill="#849C03"/>
<path transform="translate(917,581)" d="m0 0h1l1 10 1 4-1 5 1 4 2 7 1 4 2 1v26l-2-4v-7l-1-5-1-6-3-2 1-7-2-7-1-3 1-9-1-6z" fill="#575D11"/>
<path transform="translate(877,233)" d="m0 0h6l9 6 4 1v2l3 1v2h2l1 4-3-1-2-4-8-1-6-3-12-1 2-4z" fill="#717912"/>
<path transform="translate(932,938)" d="m0 0 7 1 4 6 2 8-2 2-6-5-7-8-2-2z" fill="#2A300F"/>
<path transform="translate(962,625)" d="m0 0h5l1 2-2 5-8 4-4 4-4-2v-2l3-1 2-8z" fill="#5E6D0E"/>
<path transform="translate(585,298)" d="m0 0 4 1-10 7-2 4-4 4-3 5-5 1-1 5-4 9h-2l-2 12-2 2 2-14 3-3 5-12 7-8 5-6 6-5h3z" fill="#75810E"/>
<path transform="translate(1010,640)" d="m0 0 5 2v4l-3 2-2 9h-3l-2 4-4 1 4-6h2l1-8h-9l7-7z" fill="#62760B"/>
<path transform="translate(738,618)" d="m0 0 3 1-1 6 4 4-2 3-7-1-1-2-2 1-5-2h-2v-4l12-1v-2h2z" fill="#585913"/>
<path transform="translate(616,690)" d="m0 0 9 3 2 5h3v5l5 2 3 6v2l5 1 2 6-4-2v-2h-2v-2l-4-2-3-3v-2l-4-2-5-5v-2h-2z" fill="#3B3F18"/>
<path transform="translate(700,497)" d="m0 0h14l8 2 7 4 10 5 12 1 6 2 15 1v1h-17l-5-1v-2h-12l-14-7-18-4-6-1z" fill="#607409"/>
<path transform="translate(573,489)" d="m0 0 5 1 1 10-1 1 13 1v1h-18l-6-2 3-1 2-10z" fill="#658003"/>
<path transform="translate(801,338)" d="m0 0h8l10 3h19l-1 4-17 1-16-1-1-2 13 1-1-2-14-3z" fill="#767C12"/>
<path transform="translate(1025,638)" d="m0 0 1 4-9 16-5 11-5 9-3 7-1-3 7-16 2-7 9-15z" fill="#464D15"/>
<path transform="translate(563,605)" d="m0 0h16l3 21-5-2-1-6 2-3-1-4-2-1-16-2v-2z" fill="#383818"/>
<path transform="translate(614,271)" d="m0 0h4l3 7 3 1 8-4h2l-1 7-5 4h-4v-2h-2l-4-6v-2l-5-1z" fill="#698006"/>
<path transform="translate(875,230)" d="m0 0h9l2 4 9 3v2l4 1 1 5-4-3v-2l-6-1-7-5h-6l-10 6h-11v-1l10-1z" fill="#535613"/>
<path transform="translate(982,693)" d="m0 0 1 3-1 13-1 8-1 1h-16v-1l9-2 3-4 3-7 1-9z" fill="#5D6D0D"/>
<path transform="translate(917,543)" d="m0 0 6 2 12 1 5 4-1 1h-16l-7-3z" fill="#5A6210"/>
<path transform="translate(620,470)" d="m0 0 10 1 1 7-3 1v2h-5v-2l2-1-2-1-2 2-6-2 4-5z" fill="#849C03"/>
<path transform="translate(1036,412)" d="m0 0h3l2 4 8 3-1 2h-9-4l-8-2-7-1-2-4 18 3z" fill="#777F11"/>
<path transform="translate(929,361)" d="m0 0 5 2 1 2-6 14-3 2v-16l1-3z" fill="#849C03"/>
<path transform="translate(931,710)" d="m0 0 4 1 3 2v2l5 2 11 3v1h-20l-3-2 3-1v-3l-6-1v-2z" fill="#1D1F09"/>
<path transform="translate(1126,723)" d="m0 0 4 1v4l-1 2-11 2h-7l2-4 7-3z" fill="#101802"/>
<path transform="translate(935,641)" d="m0 0 6 3 4 1v6l-4-1-1-3h-2v2h-4l-1 5-2 1v-11l2-2z" fill="#57620F"/>
<path transform="translate(895,534)" d="m0 0h7l10 3 1 3h-5v-2l-2 1-9 1h-9l2-4z" fill="#5A640F"/>
<path transform="translate(701,955)" d="m0 0 5 2 2 3-1 4h-15v-3l-1-2 5 1 2-4z" fill="#101802"/>
<path transform="translate(1025,419)" d="m0 0h8l3 2v5l-10 2-3-1 1-7z" fill="#62760A"/>
<path transform="translate(634,586)" d="m0 0 2 1 1 6-1 4-8 1-3-1 1-7z" fill="#849C03"/>
<path transform="translate(768,543)" d="m0 0 4 2-1 3h-7l-2 4-5 3-6 1 1 3h-4v2h-2v-3h2v-3l3-1 3-3 2 1 1-3h2v-2l8-3z" fill="#777D13"/>
<path transform="translate(1053,430)" d="m0 0 4 1 8 8 1 8-2-4-6-7v-2l-8 4-7-1-1-4 9 1z" fill="#657F03"/>
<path transform="translate(1e3 685)" d="m0 0v3l-6 12h-2l-2 4h-2v2l-4 3-1-3 2-3 2-12h-5v-1h6l2 3-2 8h2l8-15z" fill="#57620F"/>
<path transform="translate(614,638)" d="m0 0 2 2-3 3h-2l-2 5-1 4 2 3v6l1 2 2-1v3l-4 1v-4l-2-1-1-9h-2v-3l-2-1h2v-3l9-6z" fill="#5E6D0E"/>
<path transform="translate(660,479)" d="m0 0 6 1 8 5 5 2 7 2 2 4-5-1-11-4-7-3z" fill="#B0C305"/>
<path transform="translate(965,307)" d="m0 0h1l1 10 1 1v5l-3 1 1 11h-2l-2 3-4-1-1-4 4-4 4-8z" fill="#6F7512"/>
<path transform="translate(697,236)" d="m0 0h13v1l-27 3-3 3-16 8 1-4 4-1v-2l16-7z" fill="#5C6213"/>
<path transform="translate(648,558)" d="m0 0h3v5l-5 10-3 1-1-6v-6z" fill="#849C03"/>
<path transform="translate(848,426)" d="m0 0 2 1-5 6-5 1-3-1h-13l-8 3-3-1 12-5 15-1h5z" fill="#7F9108"/>
<path transform="translate(841,234)" d="m0 0 10 2 5 3h11l5-2-2 4-8 3-10-4-5-1v3l-4-1 1-4h-2z" fill="#5D690F"/>
<path transform="translate(586,368)" d="m0 0 5 2 4 2 1 4h2l3 5v3l-4-2-10-8z" fill="#595C12"/>
<path transform="translate(1e3 662)" d="m0 0 1 4-2 9-10 9-4-1v-7l1 3 4 1 5-7 3-10z" fill="#5E6D0D"/>
<path transform="translate(937,385)" d="m0 0 4 1 1 6-6 2-3 2h-3v-7l3-3z" fill="#849C03"/>
<path transform="translate(690,589)" d="m0 0 5 1 1 3 2 1-1 5-2 1h-7l-1-4 3-1-1-5z" fill="#485314"/>
<path transform="translate(735,505)" d="m0 0 3 1 13 1 14 3 10-1 3-1v2l-4 2h-17l-6-2-12-1-4-2z" fill="#849C03"/>
<path transform="translate(657,378)" d="m0 0h8l9 4 4 2v2l-14-2-7-2-1-3z" fill="#667010"/>
<path transform="translate(531,360)" d="m0 0 4 1 1 3-3 4h-8l-4-2v-2l5-3z" fill="#5B680E"/>
<path transform="translate(660,342)" d="m0 0h2v12l-1 5-5-2-2-1 3-9z" fill="#849C03"/>
<path transform="translate(748,574)" d="m0 0h5l-3 1v2l-6 3-1 2 2 1-1 1h-5l-1-1h-10l-2 1-6-2 4-2h9l9-2h4v-2h2z" fill="#5F700C"/>
<path transform="translate(625,355)" d="m0 0 3 3 2 6v4l-3 1-5-2-1-3 2-7z" fill="#849C03"/>
<path transform="translate(598,638)" d="m0 0h2v2h3v2l3 1-3 2h-3v6l-7-2-1-7 3 3 2-6z" fill="#5E6D0E"/>
<path transform="translate(821,354)" d="m0 0h12l4 2-3 3h-11l-7-2 1-2z" fill="#6F7D0C"/>
<path transform="translate(640,270)" d="m0 0v3l-3 2-15 5-4-5 1-4 2 2h13z" fill="#68770E"/>
<path transform="translate(1042,602)" d="m0 0h2l-1 6-10 19-3 7h-2v4h-2l1-5 4-8 4-7 2-7 3-3z" fill="#464D15"/>
<path transform="translate(962,510)" d="m0 0 1 3v10l-1 6-1 13-3 1-1-10 3-10v-8z" fill="#627809"/>
<path transform="translate(1063,469)" d="m0 0 1 3v4l6-2 1-3h2l1-2-1 4-6 5-5 7h-3l1-6z" fill="#668103"/>
<path transform="translate(1081,535)" d="m0 0h1v6l-5 8h-2l-2 10-1 6-8 8v-3l6-6 1-11 3-6h2l2-5 2-2z" fill="#485014"/>
<path transform="translate(891,532)" d="m0 0h13l9 3-3 1-7-2-8-1v2l-8 4-8 6-2 1 2-5z" fill="#A1B604"/>
<path transform="translate(563,432)" d="m0 0h2v2h2l3 5 5 3h5l3 5 2 7-4-2-3-5-8-4-7-10z" fill="#62770A"/>
<path transform="translate(908,573)" d="m0 0 1 3-1 1-2 13h-3v3l-3 1 1-9 1-5h2l-2-4 5-1z" fill="#57620F"/>
<path transform="translate(862,554)" d="m0 0 14 2 3 2 4 2 7 2-2 2h-5v-2h-7l-5-1v-3l-9-3z" fill="#62760A"/>
<path transform="translate(982,458)" d="m0 0h11l1 2-4 4-6 3-3-1v-6z" fill="#585C11"/>
<path transform="translate(624,578)" d="m0 0h5l2 5-1 2h2l-1 4-7-1-1-3z" fill="#61740B"/>
<path transform="translate(711,564)" d="m0 0 4 1-1 5-3 6-5-1-2-2 5-8z" fill="#849C03"/>
<path transform="translate(658,458)" d="m0 0h26l3 2-6 1-3-1v2l-16-1-4-2z" fill="#B0C305"/>
<path transform="translate(1038,409)" d="m0 0 8 6 6 3-1 5h-2v2l4 2-5-1-4-4h4l-1-3-7-3-1-4-3-1z" fill="#5A640F"/>
<path transform="translate(912,725)" d="m0 0 2 1-6 6h-2l-1 3-8 4h-2l2-4 5-6 5-2 4-1z" fill="#3B4018"/>
<path transform="translate(581,618)" d="m0 0h1l1 7 3 1 2 13 3 5 3 9-2 1-6-13-5-17z" fill="#485014"/>
<path transform="translate(962,543)" d="m0 0h2l1 3 3 1v6l-9 1-1-4z" fill="#62760B"/>
<path transform="translate(909,360)" d="m0 0h5l2 5h2v5h-7l-2-2z" fill="#668103"/>
<path transform="translate(968,339)" d="m0 0 9 6 6 2 3 10 4 2 7 4-2 1-8-4-6-8-1-3-6-3-6-5z" fill="#515713"/>
<path transform="translate(890,318)" d="m0 0 5 2v5h2l1 3-5 4-2-1-2-11z" fill="#849C03"/>
<path transform="translate(629,309)" d="m0 0h2l-1 12v11l-5-1-1-4 3-8z" fill="#819506"/>
<path transform="translate(865,908)" d="m0 0 8 1 3 2v2h-3l-1 2h-7l-3-2 1-4z" fill="#2A300F"/>
<path transform="translate(998,687)" d="m0 0 1 2-6 12-3 2-1-3 2-8-7-2v-1h12z" fill="#5D6C0E"/>
<path transform="translate(906,538)" d="m0 0h2v2h5l1-2 6 5-3 1-1 4 5 1v1h-6l-3-5-6-3v-2l-2-1z" fill="#5F6E0D"/>
<path transform="translate(556,856)" d="m0 0 4 1-5 6-6 5-4 4-2-1 2-4 5-5h2l1-4z" fill="#383818"/>
<path transform="translate(1e3 365)" d="m0 0 5 3 3 3v7h-2l-2 5-1 6h-1v-8l3-6-3-1z" fill="#5F6D0D"/>
<path transform="translate(722,336)" d="m0 0 7 4 9 7 2 4-5-1-8-6-5-6z" fill="#849C03"/>
<path transform="translate(804,679)" d="m0 0h5l3 3 3 9v3l-6-5-5-6z" fill="#585913"/>
<path transform="translate(695,398)" d="m0 0 9 1 2 3 7-1h11v1l-9 1-11 3-5-3z" fill="#747A12"/>
<path transform="translate(1083,505)" d="m0 0 1 4-3 7-3 16 4 2-1 6-5-10 1-9z" fill="#566111"/>
<path transform="translate(772,404)" d="m0 0 9 1 7 2-2 3h-10l-3-1z" fill="#606412"/>
<path transform="translate(952,384)" d="m0 0 4 1-2 5-8 6-1-5 2-4z" fill="#849C03"/>
<path transform="translate(868,836)" d="m0 0 4 4v12l-4-2-2-4z" fill="#3D4418"/>
<path transform="translate(920,879)" d="m0 0 5 5 1 5-9-1-9-5 3-1 9 3z" fill="#1A1B08"/>
<path transform="translate(867,823)" d="m0 0 8 1v2l8-1 1 4h-13l-3-1z" fill="#282620"/>
<path transform="translate(948,520)" d="m0 0 1 3-4 10h-2l-1 8h-1v-14l2-6 1 3h2z" fill="#697410"/>
<path transform="translate(906,406)" d="m0 0h8v2l-21 2-11 4-2-1 5-3 9-3z" fill="#7E8F09"/>
<path transform="translate(496,911)" d="m0 0h3l-1 6-5 7-4-1 1-4z" fill="#1A1B08"/>
<path transform="translate(931,557)" d="m0 0 3 4 1 4 5-2-1 5-2 1-2 4-3-1-2-12z" fill="#69780D"/>
<path transform="translate(890,336)" d="m0 0 2 1-2 9-3 2h-4l1-6 4-5z" fill="#7F9207"/>
<path transform="translate(856,748)" d="m0 0h4v3l2 1-1 2 2 1-1 1-17 3 3-3h6v-2h2z" fill="#2A300F"/>
<path transform="translate(1073,459)" d="m0 0h4l2 4-5 2-3 4h-3v-9z" fill="#545F10"/>
<path transform="translate(784,446)" d="m0 0 10 1v1l-13 1-9 3h-3v2l-9 3 4-4 5-3 9-3z" fill="#5A6210"/>
<path transform="translate(877,921)" d="m0 0h7l2 4-2 3h-6l-2-2z" fill="#091001"/>
<path transform="translate(916,557)" d="m0 0h4l-1 13h2l1 9h-2l-1 4-2-23-4 1z" fill="#65780B"/>
<path transform="translate(602,529)" d="m0 0 3 1 1 6-3 5-3 4-1-1 1-8z" fill="#5C6B0D"/>
<path transform="translate(697,397)" d="m0 0h11l7 3-2 2-8 1-1-4h-7z" fill="#839904"/>
<path transform="translate(981,356)" d="m0 0 5 2 6 4 8 3 1 3-9-3-5-3-9-2 1-3 2 1z" fill="#6C780F"/>
<path transform="translate(929,268)" d="m0 0 4 4 7 13 5 3-4 1-5-5-7-11-1-3z" fill="#7A890B"/>
<path transform="translate(896,679)" d="m0 0 4 1 3 4h-2l-1 6-4-2-2-3 1-5z" fill="#5E6D0E"/>
<path transform="translate(700,497)" d="m0 0h14l8 2 5 5-12-3-15-3z" fill="#56620F"/>
<path transform="translate(614,269)" d="m0 0h7l5 3 8 1v1h-13l-2-2h-5l-4 6-2-1 4-6z" fill="#555912"/>
<path transform="translate(993,702)" d="m0 0v3l1 3 7 2 2 2-1 1-7-1-4-1-4 2 3-9z" fill="#393C17"/>
<path transform="translate(878,394)" d="m0 0h2v5l-1-2h-2l-1 5-3 3-5-1 3-5h2v-2l5-2z" fill="#849C03"/>
<path transform="translate(931,307)" d="m0 0h3l-2 10-5 6-1-4z" fill="#6C7013"/>
<path transform="translate(1025,638)" d="m0 0 1 4-7 12-4 3-2 6-1-4 9-15z" fill="#525C11"/>
<path transform="translate(609,611)" d="m0 0 5 5-1 3-7 3h-3z" fill="#626F0E"/>
<path transform="translate(973,459)" d="m0 0 4 1-12 4-4 1-9 1-1 3-6 1 3-3 9-4z" fill="#6A760F"/>
<path transform="translate(945,289)" d="m0 0h2l6 10h6l1-1h5v9l-2-3v-5l-3 2h-8l-4-4v-4l-3-1z" fill="#525813"/>
<path transform="translate(864,429)" d="m0 0 2 1-6 8-6 4-5 1-2-2 5-3 7-2z" fill="#777D13"/>
<path transform="translate(632,600)" d="m0 0 3 1-3 3-1 3-4 3v3h-2v2h-4l1-4 2-4 4-2 1-2h2z" fill="#5D6B0E"/>
<path transform="translate(859,424)" d="m0 0 2 1-1 5-7 3h-4l1-4 6-3z" fill="#393A18"/>
<path transform="translate(745,255)" d="m0 0h8l-4 4-4 1h-7l-2-2z" fill="#849C03"/>
<path transform="translate(938,703)" d="m0 0 1 3v7l2 1-4-1-3-2-6 1 2-3h2v-2z" fill="#3D4418"/>
<path transform="translate(925,547)" d="m0 0h12l3 3-1 1h-9l-6-2z" fill="#4B5513"/>
<path transform="translate(872,422)" d="m0 0h10l-2 5-5 1-5-4v2h-2l-1 2 1-4z" fill="#777D13"/>
<path transform="translate(579,503)" d="m0 0h12l5 1-4 3-2 3-5-2-1-3-5-1z" fill="#5E6E0D"/>
<path transform="translate(533,474)" d="m0 0 3 2 4 10 12 8-3 1-9-6-4-5z" fill="#61740A"/>
<path transform="translate(814,710)" d="m0 0 8 1 6 5v2l-5-1-8-4z" fill="#485314"/>
<path transform="translate(918,589)" d="m0 0 3 1 1 7 1 15-3-2-1-9-2-2h3l-1-7z" fill="#5E6E0D"/>
<path transform="translate(497,386)" d="m0 0 5 1 1 2h-5l8 4v3l-10-4-1-4z" fill="#525613"/>
<path transform="translate(602,514)" d="m0 0 1 2h3l1 5-3 4-2 4-1-11z" fill="#61740B"/>
<path transform="translate(1008,666)" d="m0 0h2l-1 5-2 4-3 3-2 3v-2l-2-1 3-7h2l1-2z" fill="#727A11"/>
<path transform="translate(925,634)" d="m0 0h2v20l-1 7-3-4z" fill="#5B670F"/>
<path transform="translate(702,237)" d="m0 0h8v1l-21 3h-7l1-2z" fill="#757B12"/>
<path transform="translate(995,721)" d="m0 0h7v2l-5 3h-7l-3-2z" fill="#313214"/>
<path transform="translate(1050,591)" d="m0 0v3l-2 4h-2l-1 4h-3l-1 6-3 3 3-10 5-7z" fill="#5A6610"/>
<path transform="translate(982,366)" d="m0 0h2v8l-4 10h-1l1-10 1-7z" fill="#777D13"/>
<path transform="translate(854,330)" d="m0 0 4 1v5l-6 3h-2l1-6z" fill="#849C03"/>
<path transform="translate(1e3 685)" d="m0 0v3l-6 12h-2l-2 4v-3l8-15z" fill="#474E15"/>
<path transform="translate(559,328)" d="m0 0 1 3-3 1-2 13-3 6h-3l3-4 2-7 1-9z" fill="#4D5114"/>
<path transform="translate(849,920)" d="m0 0h6l2 4-5 3v-3l-6-1v-2z" fill="#101802"/>
<path transform="translate(827,877)" d="m0 0h4v7l-6 2-1-3z" fill="#101802"/>
<path transform="translate(917,581)" d="m0 0h1l1 10 1 4-1 5v4l-3-1 1-11-1-6z" fill="#57630F"/>
<path transform="translate(887,538)" d="m0 0 10 2v2l-12 2-4 1 3-5z" fill="#66750D"/>
<path transform="translate(1066,460)" d="m0 0 1 4-1 8 5-1-1 3-6 2-1-4z" fill="#627709"/>
<path transform="translate(809,338)" d="m0 0 11 1 17 1v1l-9 1h-9l-10-3z" fill="#849C03"/>
<path transform="translate(881,420)" d="m0 0 5 1 4-1v3l-6 3-4-1 1-2h-6v-1z" fill="#5F700C"/>
<path transform="translate(515,402)" d="m0 0 5 5 1 5-4 3-3-6 1-5z" fill="#3D4417"/>
<path transform="translate(586,371)" d="m0 0h2l2 3 3 1 1 2 3 1 1-2 3 5v3l-4-2-10-8z" fill="#717A11"/>
<path transform="translate(933,313)" d="m0 0 1 3-5 9-4 2-1-7 2-1 1 3 4-5z" fill="#849C03"/>
<path transform="translate(751,402)" d="m0 0h7l9 3v2l-11-1-5-2z" fill="#383918"/>
<path transform="translate(719,233)" d="m0 0h8l11 4v1h-7l-3-2-15-1v-1z" fill="#4D5413"/>
<path transform="translate(990,663)" d="m0 0 3 1-1 10-3 2-1-5z" fill="#485314"/>
<path transform="translate(1044,410)" d="m0 0 6 2 4 6-2 7 2 1-5-1v-2l2-1-1-5z" fill="#3A3D18"/>
<path transform="translate(761,367)" d="m0 0 8 1 11 4-1 2-11-1 4-2-11-3z" fill="#849C03"/>
<path transform="translate(583,334)" d="m0 0 2 2 1 21-2 2-1-4z" fill="#585913"/>
<path transform="translate(680,386)" d="m0 0h7l4 3v4l-5-2-6-4z" fill="#747E0F"/>
<path transform="translate(657,378)" d="m0 0h8l3 2-5 1 4 2-3 1-7-2-1-3z" fill="#6B770F"/>
<path transform="translate(809,356)" d="m0 0 3 1-4 3-16 2 1-2z" fill="#777D13"/>
<path transform="translate(689,240)" d="m0 0m-7 1h7l-3 2-7 4h-6l3-3z" fill="#849C03"/>
<path transform="translate(599,665)" d="m0 0 5 5 7 11 3 4-1 2-7-9-7-11z" fill="#3B4018"/>
<path transform="translate(947,511)" d="m0 0 2 1v8l-3 4h-2l1-9z" fill="#5C6211"/>
<path transform="translate(521,463)" d="m0 0 5 1-1 4v-2l-6 1h-11l-1-3 9 1z" fill="#637A07"/>
<path transform="translate(1018,414)" d="m0 0 16 3 1 3-15-2z" fill="#777D13"/>
<path transform="translate(510,395)" d="m0 0 6 1 9 4 1 7-2-4-6-2v-2l-6-2z" fill="#777D13"/>
<path transform="translate(938,643)" d="m0 0 7 2v6l-4-1-1-3-3-1z" fill="#57630F"/>
<path transform="translate(716,590)" d="m0 0 5 5 5 7v2h2v2h-3l-1-5h-3l-1-5-3-1z" fill="#58640E"/>
<path transform="translate(576,568)" d="m0 0h1l2 15v5l-3-1z" fill="#505513"/>
<path transform="translate(906,569)" d="m0 0 3 1-1 5-1 1h-6l1-4 2 1v-3z" fill="#5E6D0E"/>
<path transform="translate(945,552)" d="m0 0 2 1v4l3 1-2 5h-2v-8l-7 3v-3z" fill="#62760B"/>
<path transform="translate(506,400)" d="m0 0 7 2 2 4-5 1-4-3z" fill="#2A300F"/>
<path transform="translate(938,714)" d="m0 0 9 2 13 3v1h-10l-8-3z" fill="#2A300F"/>
<path transform="translate(740,500)" d="m0 0h3l1 6h-7v-4z" fill="#62760B"/>
<path transform="translate(877,233)" d="m0 0h6l5 5-3-1h-13l3-3z" fill="#60710C"/>
<path transform="translate(636,797)" d="m0 0h2l-1 3-5 2-1 3-4 2-3-1z" fill="#2A300F"/>
<path transform="translate(1042,602)" d="m0 0h2l-1 6-4 8h-3l1-5 3-3z" fill="#4C5314"/>
<path transform="translate(751,543)" d="m0 0 3 2v2l-9 4 1-5h2v-2z" fill="#64780A"/>
<path transform="translate(640,453)" d="m0 0 4 1v10l1 5h-2l-3-12z" fill="#B0C305"/>
<path transform="translate(547,352)" d="m0 0 4 1-12 8-4-1 6-2 1-3z" fill="#6D7313"/>
<path transform="translate(925,713)" d="m0 0 3 1-6 7-4 1v2h-2l2-4z" fill="#333714"/>
<path transform="translate(963,662)" d="m0 0v3l-8 13-1-4 8-11z" fill="#5A630F"/>
<path transform="translate(650,601)" d="m0 0 5 2 6 7-1 2-2-1v-2l-4-2-4-4z" fill="#668103"/>
<path transform="translate(875,230)" d="m0 0 2 1-5 6-5 3h-11v-1l10-1z" fill="#4A4F14"/>
<path transform="translate(925,716)" d="m0 0 1 2h2l1 3-11 3v-2l4-2z" fill="#1A1B08"/>
<path transform="translate(586,638)" d="m0 0 4 4 4 9-1 3-3-4-4-9z" fill="#424B15"/>
<path transform="translate(906,409)" d="m0 0h6v2l-6 2h-6v-2z" fill="#485314"/>
<path transform="translate(583,366)" d="m0 0 6 1 7 4 1 5-2-4-5-2-4-2-1 2z" fill="#768010"/>
<path transform="translate(822,355)" d="m0 0h9l3 2-3 1h-10z" fill="#5E6D0E"/>
<path transform="translate(888,309)" d="m0 0 5 1-1 5h-4l-1-5z" fill="#849C03"/>
<path transform="translate(868,841)" d="m0 0 3 1v8l-4-3-1-4z" fill="#454F14"/>
<path transform="translate(663,605)" d="m0 0 5 2 1 3-1 2-4-1-2-2z" fill="#57630F"/>
<path transform="translate(826,551)" d="m0 0 4 1 13 1v1l-11 2-5-2z" fill="#60730B"/>
<path transform="translate(962,510)" d="m0 0 1 3v10l-2 5-1-4v-9z" fill="#62760B"/>
<path transform="translate(995,455)" d="m0 0h2l-2 6-4 4 1-5 1-1-8-1v-1z" fill="#6B770F"/>
<path transform="translate(826,433)" d="m0 0h10l1 2-17 1 3-2z" fill="#383718"/>
<path transform="translate(1039,420)" d="m0 0 9 1-5 5-4-1z" fill="#5E6D0D"/>
<path transform="translate(882,413)" d="m0 0h2v2h-2l-2 4-9-3v-1h8z" fill="#7B870D"/>
<path transform="translate(752,404)" d="m0 0 16 2 2 1v2l-15-2z" fill="#585B12"/>
<path transform="translate(585,374)" d="m0 0 3 3 2 6v5l-3-3-2-7z" fill="#B0C305"/>
<path transform="translate(915,554)" d="m0 0h2l-1 3-8 6h-2v-4l4-2h2z" fill="#849C03"/>
<path transform="translate(921,536)" d="m0 0h4l-1 8-4-3z" fill="#5F700C"/>
<path transform="translate(859,434)" d="m0 0v3l-10 3-7 1 12-6z" fill="#5F6F0D"/>
<path transform="translate(892,411)" d="m0 0h7l-1 2-10 4h-2v-2h2l1-3z" fill="#485314"/>
<path transform="translate(912,408)" d="m0 0h9l-2 2-13 4v-2l6-1z" fill="#5C6012"/>
<path transform="translate(497,388)" d="m0 0 12 2 1 5-6-2-7-4z" fill="#777D13"/>
<path transform="translate(979,350)" d="m0 0h2l3 5-1 2-2-1v2l-3-1v-6z" fill="#5A670E"/>
<path transform="translate(586,342)" d="m0 0h1l1 14-2 3-1-5v-7z" fill="#7C8A0C"/>
<path transform="translate(1e3 662)" d="m0 0 1 4-2 9-4 2 3-9z" fill="#62760B"/>
<path transform="translate(916,557)" d="m0 0h4l-1 14h-1l-1-11-4 1z" fill="#5F700C"/>
<path transform="translate(949,506)" d="m0 0 2 4v6l-1 2h-2v-6l-1-3z" fill="#777D13"/>
<path transform="translate(1058,433)" d="m0 0 7 6 1 8-2-4-6-7z" fill="#627509"/>
<path transform="translate(1050,418)" d="m0 0h2l-1 5h-2v2l4 2-5-1-4-4 6-1z" fill="#555A12"/>
<path transform="translate(618,271)" d="m0 0 3 2 10 1-4 2-6 1-3-2z" fill="#5E6D0D"/>
<path transform="translate(935,641)" d="m0 0 3 2v6h-4l-1-5z" fill="#575B11"/>
<path transform="translate(700,497)" d="m0 0h14l3 2-5 1-12-2z" fill="#5C6B0D"/>
<path transform="translate(531,360)" d="m0 0 2 1-6 4-6 1v-2l5-3z" fill="#4F5314"/>
<path transform="translate(842,236)" d="m0 0 8 1 2 2h-5v3l-4-1 1-4z" fill="#777D13"/>
<path transform="translate(696,582)" d="m0 0 5 1 2 6-3-1v-4l-4 2-4-1z" fill="#627809"/>
<path transform="translate(811,436)" d="m0 0 4 1-3 3h-2v2l-3 1 1-5z" fill="#68710F"/>
<path transform="translate(765,403)" d="m0 0 7 1v2l2 1-1 2h-3v-2l-5-2z" fill="#515414"/>
<path transform="translate(726,398)" d="m0 0 10 2 1 2h-7l-6-2z" fill="#373618"/>
<path transform="translate(1e3 365)" d="m0 0 5 3 3 3v7h-1l-1-6-5-3z" fill="#4D5514"/>
<path transform="translate(965,324)" d="m0 0 2 2 1 13-2-3-2-10z" fill="#4A4F14"/>
<path transform="translate(909,255)" d="m0 0h8l3 3-2 1-9-2z" fill="#686E13"/>
<path transform="translate(995,709)" d="m0 0h5l3 3-1 1-7-1-2-2z" fill="#33311A"/>
<path transform="translate(873,486)" d="m0 0 2 1 1 4-7 6-2-1 4-3z" fill="#668103"/>
<path transform="translate(801,470)" d="m0 0 3 1 1 6h-3l-2-2z" fill="#62760B"/>
<path transform="translate(933,304)" d="m0 0h3l-1 9h-2l-1 2 1-5 1-3h-2z" fill="#7B870D"/>
</svg>
