<svg xmlns="http://www.w3.org/2000/svg" version="1.1" xmlns:xlink="http://www.w3.org/1999/xlink" xmlns:svgjs="http://svgjs.dev/svgjs" width="1920" height="1080" preserveAspectRatio="none" viewBox="0 0 1920 1080"><g mask="url(&quot;#SvgjsMask1651&quot;)" fill="none"><rect width="1920" height="1080" x="0" y="0" fill="rgba(21, 21, 21, 1)"></rect><path d="M0 0L430.89 0L0 337.82z" fill="rgba(255, 255, 255, .1)"></path><path d="M0 337.82L430.89 0L455.44 0L0 734.3399999999999z" fill="rgba(255, 255, 255, .075)"></path><path d="M0 734.3399999999999L455.44 0L1286.05 0L0 946.2299999999999z" fill="rgba(255, 255, 255, .05)"></path><path d="M0 946.2299999999999L1286.05 0L1645.4499999999998 0L0 1024.9099999999999z" fill="rgba(255, 255, 255, .025)"></path><path d="M1920 1080L961.43 1080L1920 649.85z" fill="rgba(0, 0, 0, .1)"></path><path d="M1920 649.85L961.43 1080L702.72 1080L1920 441.3z" fill="rgba(0, 0, 0, .075)"></path><path d="M1920 441.29999999999995L702.72 1080L667.83 1080L1920 285.77z" fill="rgba(0, 0, 0, .05)"></path><path d="M1920 285.77L667.8299999999999 1080L192.88999999999993 1080L1920 195.47999999999996z" fill="rgba(0, 0, 0, .025)"></path></g><defs><mask id="SvgjsMask1651"><rect width="1920" height="1080" fill="#ffffff"></rect></mask></defs></svg>