<svg xmlns="http://www.w3.org/2000/svg" xmlns:xlink="http://www.w3.org/1999/xlink" viewBox="0,0,256,256" width="50px" height="50px" fill-rule="nonzero"><g fill="#ffffff" fill-rule="nonzero" stroke="none" stroke-width="1" stroke-linecap="butt" stroke-linejoin="miter" stroke-miterlimit="10" stroke-dasharray="" stroke-dashoffset="0" font-family="none" font-weight="none" font-size="none" text-anchor="none" style="mix-blend-mode: normal"><g transform="scale(10.66667,10.66667)"><path d="M21.936,2.444c-0.745,-0.521 -1.683,-0.599 -2.506,-0.207l-17.488,9.212c-1.312,0.691 -1.235,2.581 0.116,3.19c0.289,0.13 0.541,0.228 0.738,0.282l2.144,0.536c0.739,0.186 1.531,0.049 2.167,-0.375l9.088,-6.979c0.207,-0.158 0.499,-0.133 0.673,0.059c0.176,0.19 0.176,0.483 0.001,0.675l-6.544,7.169c-0.292,0.294 -0.427,0.676 -0.384,1.065c0.043,0.389 0.257,0.732 0.587,0.942l0.035,0.018l7.945,3.783c1.217,0.58 2.642,-0.216 2.788,-1.556l1.691,-15.531c0.088,-0.907 -0.304,-1.76 -1.051,-2.283z"></path></g></g></svg>